<?xml version="1.0" encoding="utf-8"?>
<!-- Generator: Adobe Illustrator 21.0.2, SVG Export Plug-In . SVG Version: 6.00 Build 0)  -->
<svg version="1.1" id="Capa_1" xmlns="http://www.w3.org/2000/svg" xmlns:xlink="http://www.w3.org/1999/xlink" x="0px" y="0px"
	 viewBox="0 0 226.5 227.4" style="enable-background:new 0 0 226.5 227.4;" xml:space="preserve">
<style type="text/css">
	.st0{fill:#333333;}
	.st1{fill:#384708;}
	.st2{fill:#F4E16A;}
</style>
<g>
	<g>
		<g id="XMLID_1_">
			<g>
				<path class="st0" d="M173.8,156.1c-0.5,0.3-0.9,0.8-1.4,1c-5.6,2.7-11.5,4.4-17.8,4.3c-2.6,0-5.1-0.4-7.5-1.6
					c-2.7-1.3-5.5-1.7-8.4-1c-0.4,0.1-0.7,0.2-1.1,0.3c-4.2,2.5-8.3,5.2-11.5,8.9c-0.1,0.1-0.1,0.2,0,0c1.8-0.2,3.7-0.4,5.6-0.5
					c0.9,0,1.9,0.7,2.7,0.5c0.8-0.2,1.4-1.2,2.2-1.6c1.4-0.8,2.8-1,4.4-0.7c3.4,0.6,4.8,4.5,2.6,7.2c-1.6,2-4.8,2.6-7.1,1.4
					c-1.4-0.7-2-2-2.2-3.4c-0.1-0.6,0-1.2,0-1.8c-3.2-1.2-6.4-0.7-9.4,0.5c-0.5,0.2-0.9,0.9-1.2,1.4c-3.1,4.9-6.2,9.8-9.4,14.6
					c-0.7,1.1-1.6,2-2.4,3c-0.2,0.2-0.5,0.3-0.8,0.4c0-0.3,0-0.7,0.1-0.9c1.2-1.9,2.4-3.8,3.6-5.7c1.2-1.9,2.5-3.8,3.8-5.7
					c0.5-0.7,0.4-1.2,0-1.8c-1.2-1.7-2.6-3-4.3-4.1c-0.3-0.2-0.8-0.3-1.1-0.2c-1.1,0.6-2.1,1.2-3.2,1.9c-0.2,0.1-0.2,0.5-0.1,0.8
					c0.1,2.3-1.2,3.7-3.3,3.4c-2-0.2-3.3-1.8-2.9-3.6c0.3-1.7,2.3-2.7,4.1-2.1c0.5,0.2,1,0.5,1.6,0.8c0.4-0.4,0.9-0.8,1.4-1.2
					c0.5-0.3,1.1-0.6,1.8-0.8c-1.4-1-2.9-1.2-4.5-1.3c-1.1-0.1-2.2-0.2-3.3-0.3c-3.1-0.3-5.7-1.5-8.2-3.2c-1.2-0.8-2.4-1.6-3.6-2.5
					c-0.3-0.3-0.4-0.8-0.6-1.2c0.4,0,0.8-0.2,1.2-0.1c2.8,0.5,5.6,0.9,8.4,1.5c2.7,0.6,5.1,1.7,6.8,3.9c0.3,0.3,0.7,0.5,1.1,0.7
					c2.9,1.4,5.9,2.8,8.1,5.3c0.6,0.6,1.1,1.4,1.6,2c0.1,0,0.2,0,0.3-0.1c-0.2-1.3-0.3-2.6-0.6-3.8c-1.5-4.8-3.8-9.2-6.5-13.4
					c-0.2-0.3-0.6-0.5-1-0.6c-2.4-0.2-4.8-0.3-7.2-0.4c-0.3,0-0.7,0.3-0.9,0.5c-1.7,1.5-4.6,1.2-6-0.7c-1.1-1.6-0.4-3.5,1.5-4.1
					c1.5-0.5,3.8,0.2,4.8,1.5c0.3,0.5,0.5,1.2,0.7,1.8c2.2-0.8,4.5-0.7,6.9,0c-1.4-1.8-2.8-3.5-4.2-5.3c-1.9-2.6-4.2-4.8-7-6.6
					c-3.4-2.2-5.7-5.4-6.7-9.5c-0.5-2.2-1.7-4.3-2.5-6.4c-0.5-1.2-0.9-2.3-1.4-3.5c-0.1-0.3,0.1-0.6,0.1-0.9
					c0.3,0.1,0.7,0.1,0.9,0.3c0.9,0.8,1.9,1.6,2.6,2.5c1.8,2.1,3.4,4.4,5.2,6.5c1.9,2.3,3.1,5,4.1,7.9c1,2.9,2.4,5.6,4.5,7.9
					c1.5,1.7,2.9,3.6,4.5,5.3c-0.1-0.3-0.2-0.5-0.3-0.8c-1.7-4-2.8-8.1-2.5-12.5c0.2-2.3,0.8-4.7,1.2-7c0.2-1.2,0.5-2.4,0.9-3.5
					c0.1-0.3,0.4-0.7,0.5-1c0.3,0.2,0.6,0.4,0.8,0.7c1.7,2.3,2.6,5,3.1,7.9c0.8,5,0.2,9.9-1.7,14.5c-0.9,2.2-0.4,4.2,0.8,6.1
					c2.6,4.4,4.8,8.9,5.9,14c0.1,0.6,0.1,1.1,0.2,1.7c0.1,0,0.2,0,0.2-0.1c4.7-7.6,9-15.4,11.7-24c2.9-9.5,1.4-18.4-3.1-27
					c-0.7-1.3-1.5-2.4-2.2-3.7c-0.3-0.6-0.7-0.8-1.4-0.6c-3.2,0.6-6.4,1.4-9.6,1.8c-5.3,0.7-10.2-0.4-14.8-3
					c-0.3-0.2-0.6-0.5-0.6-0.7c0.1-0.3,0.4-0.6,0.7-0.7c6.8-3.1,13.7-3.7,20.7-0.7c0.9,0.4,1.9,0.8,3,1.3c-0.2-0.3-0.3-0.6-0.4-0.7
					c-3.8-5.2-8.2-9.8-12.8-14.3c-1.6-1.5-3.1-3-4.7-4.5c-0.4-0.4-1-0.8-1.5-0.9c-2.6-0.5-5.3-0.8-7.9-1.1c-0.4,0-1.1,0.4-1.4,0.8
					c-1.2,1.9-2.2,3.8-3.3,5.7c-1,1.8-2,3.6-3.1,5.4c-0.1,0.2-0.5,0.4-0.7,0.4s-0.4-0.3-0.5-0.5c-0.5-3.2-0.2-6.4,1.8-9.1
					c0.3-0.4,0.6-0.8,1.2-1.4c-1.6,0.8-2.9,1.4-4.2,2.1c-4.2,2.2-8.6,2.3-13.2,1.5c-0.5-0.1-1.3-0.7-1.3-1.1
					c-0.1-0.5,0.4-1.3,0.8-1.6c0.8-0.5,1.8-0.9,2.8-1.1c2-0.6,4.1-1,6.1-1.7c2.5-0.8,5.1-0.6,7.6-0.4c1.6,0.1,3.1,0,4.7-0.1
					c-1.9-1.5-3.9-2.8-4.8-5.1c-2.7-0.2-4.1-0.9-4.2-2.4c-0.2-1.5,1.1-3.1,2.7-3.6c1.5-0.5,2.9,0.1,3.7,1.6c0.8,1.6,0.5,2.8-1.3,4.2
					c1.2,1.1,2.3,2.3,3.5,3.4c2.1,1.9,4.9,2.1,7.6,2.4c0.8,0.1,1.5,0.3,2.6,0.4c-1.2-1.2-2.2-2.2-3.2-3.2
					c-4.6-4.7-8.8-9.7-11.9-15.6c-2-3.8-3.2-7.9-3.6-12.2c0-0.5-0.2-1-0.4-1.5c-1.2-3-1.9-6.1-2.3-9.3c-0.3-2,0.1-3.9,1-5.7
					c1.5-3.3,3.8-6,6.7-8.2c0.8-0.6,1.1-0.4,1.3,0.5c0.9,4.1,1,8.1,0.1,12.2c-0.3,1.4-1,2.7-1.8,3.9c-0.7,1.1-1.5,2.1-2.4,3.2
					c-1.6,2-2,4.2-1.4,6.6c0.5,2,1,4,1.5,5.9c0.2,0,0.3,0,0.5,0c0.3-1.6,0.6-3.1,0.8-4.7c0.6-4.1,2.8-7.2,5.8-9.8
					c1.1-1,2.3-1.8,3.5-2.7c0.3-0.2,0.7-0.2,1-0.3c0,0.4,0.2,0.7,0.1,1.1c-0.6,3.4-2.1,6.4-4.5,9c-1.3,1.5-2.9,2.8-4.2,4.3
					c-2,2.3-2.3,5.1-0.9,7.8c2.9,5.5,6.9,10.2,11.3,14.6c5.1,5.1,10.2,10.1,15.4,15.1c0.5,0.5,1,0.9,1.5,1.4
					c-0.4-1.4-0.8-2.8-1.2-4.2c-1.2-4.2-1.5-8.4-0.4-12.6c0.2-0.6,0.1-1.3,0.1-2c-0.3-4.3,0.8-8.1,3.4-11.6c1.7-2.4,3.1-5,4.7-7.5
					c0.1-0.2,0.4-0.3,0.6-0.5c0.1,0.2,0.3,0.3,0.4,0.5c0.8,5.7,0.4,11.2-3,16.2c-0.7,1.1-1.6,2.1-2.7,2.9c-2.3,1.6-3,3.8-3,6.4
					c-0.1,0.3,0,0.9,0,1.5c1.7-0.9,3.4-1.8,5-2.7c0.3-0.1,0.4-0.5,0.6-0.8c0.8-1.3,2.5-1.8,4.3-1.4c1.6,0.4,2.7,1.5,2.8,3
					c0.1,1.5-0.7,2.8-2.1,3.4c-2.2,0.9-5-0.5-5.6-2.8c0-0.1-0.1-0.2-0.2-0.4c-1.6,0.6-3.1,1.4-4.2,2.7c-0.3,0.4-0.5,1.1-0.5,1.6
					c0.4,3.4,1.5,6.7,2.8,9.9c0.2,0.5,0.5,0.9,0.8,1.2c4.6,5.2,8.5,10.9,11,17.4c0.6,1.6,1.1,3.2,1.6,5c0.6-3.7,2.3-6.6,4.3-9.5
					c0.3-0.4,0.4-1,0.4-1.6c0-0.9,0.1-1.8-0.1-2.6c-0.3-1.4-0.8-2.8-1.3-4.2c-0.1-0.2-0.7-0.3-1-0.2c-1.5,0.3-2.8,0.3-3.7-1.1
					c-1.1-1.6-0.7-3.7,1-4.7c1.4-0.9,3.5-0.8,4.8,0.2c1.6,1.3,1.7,3.1,0.1,4.4c-0.2,0.2-0.5,0.4-0.8,0.6c2,2.2,1.9,4.8,1.8,7.3
					c3.2-3.4,6.4-6.9,9.7-10.4c-1.3-2.5-0.8-4.4,1.9-5.9c2.5-1.4,5-0.8,6.5,1.6c0.9,1.4,0.8,2.9-0.5,4c-2.1,1.7-4.5,2.3-7.3,1.2
					c-3.4,3.9-7.5,7.2-10.6,11.9c0.4-0.3,0.6-0.4,0.8-0.5c5.5-4,11.7-5.4,18.4-5.1c0.2,0,0.5,0.2,0.7,0.3c-0.1,0.3-0.2,0.6-0.4,0.8
					c-2.5,2.3-5.5,3.7-8.6,4.8c-3.1,1.1-6.3,1.5-9.5,1.8c-2.4,0.2-3.9,1.2-4.6,3.6c-0.8,2.6-1.6,5.2-1.3,8c0.9,6.3-0.6,12.3-3,18
					c-1.4,3.4-3,6.6-4.6,10c-0.1,0.3-0.2,0.5-0.5,1c1.9-1.6,3.7-3,5.4-4.4c0.5-0.4,1-0.8,1.5-1.2c2.9-1.9,4.9-4.5,6.2-7.6
					c0.7-1.6,1.4-3.3,2.2-4.9c-1.8-1.4-2.3-2.6-1.7-4.6c0.5-1.7,2.2-2.9,4.4-3.1c2.9-0.2,4.8,1.6,4.2,4.1c-0.5,2.3-3.1,4-5.4,3.7
					c-0.2,0-0.5-0.1-0.8-0.1c-1.1,3.7-2.5,7.4-5.2,10.3c0.3-0.1,0.5-0.2,0.8-0.4c2.7-1.7,5.4-3.5,8.2-5.1c2.6-1.5,4.2-3.7,5.4-6.4
					c1.3-3,2.4-6,3.9-8.9c1.7-3.3,4.1-6.1,6.9-8.6c0.2-0.2,0.6-0.3,0.9-0.4c0.1,0.3,0.3,0.6,0.4,0.9c0.5,3,0.8,6,0.4,9.1
					c-0.6,4-2.4,7.1-6.1,9.1c-2.8,1.5-5.7,2.9-8.5,4.5c-3.3,1.9-6.5,4-9.8,6c0,0.1,0.1,0.2,0.1,0.3c1-0.1,2-0.3,3-0.4
					c0.8-0.1,1.6,0,2.3-0.2c2.1-0.6,4.2-1.2,6.2-2.1c4.6-2.1,9.3-2.2,14.1-1.1c2.2,0.5,4.4,0.7,6.6,1
					C172.8,155.4,173.3,155.8,173.8,156.1z M171.9,156.2c0-0.1,0-0.2,0-0.3c-2.9-0.4-5.7-0.8-8.6-1.4c-2.7-0.5-5.4-0.4-8,0.5
					c-2.1,0.8-4.2,1.6-6.3,2.4c0,0,0,0.1,0,0.2c4.2,0.1,8.3-0.5,12.4-1.6c-4.1,3-8.9,2.3-13.5,2.5
					C156.3,161.8,164.1,159.4,171.9,156.2z M161.3,143.8c3-4.4,2.7-9.2,2.1-14.2c-0.2,0.2-0.4,0.2-0.5,0.3c-2.7,2.6-5.1,5.4-6.7,8.8
					c-1.5,3.2-2.7,6.5-4.2,9.9c3.3-2.7,6.1-5.7,8.1-9.3c-0.5,3.6-3,6-5.4,8.4C157.3,147,159.6,146.1,161.3,143.8z M156.1,109.5
					c1.2-0.9,1.3-2.1,0.4-3.3c-0.7-0.8-1.5-1.3-2.9-1.2c-1.2,0-2.4,0.8-3.2,2.2c-0.6,1.1-0.3,2.1,0.8,2.7
					C152.8,110.9,154.3,110.8,156.1,109.5z M157.6,118.4c-5.1-0.3-9.9,0.7-14.3,3.4c2.2-0.8,4.2-1.8,6.5-2c0,0.1,0.1,0.2,0.1,0.3
					c-2.5,1.1-5,2.3-7.5,3.4c0,0.1,0.1,0.2,0.1,0.3C147.9,123.4,153.1,121.8,157.6,118.4z M148.1,143.4c0-1-0.6-1.8-1.5-2
					c-1.6-0.4-3,0.1-4.2,1.2c-1.1,1-0.4,3.7,1,4.2C145.3,147.4,148.1,145.4,148.1,143.4z M142.6,172.5c2.1-1.8,1.7-4.7-0.7-5.6
					c-1.7-0.6-4.2,0-5.3,1.4c-0.5,0.7-0.8,1.4-0.4,2.3c0.2,0.4,0.5,0.9,0.4,1.2c-0.2,0.7,0.2,1,0.7,1.2c0.6,0.4,1.4,0.6,2.4,0.9
					C140.6,173.5,141.8,173.2,142.6,172.5z M137.6,112.5c0.7-0.5,1.4-1.1,1.1-2.1c-0.2-0.9-1-1.3-1.9-1.5c-0.2-0.1-0.5-0.1-0.7-0.1
					c-0.2,0-0.4,0-0.6,0.1c-1.1,0.2-1.9,0.9-2,1.9c-0.1,1.1,0.6,1.6,1.4,2.1C135.8,113.5,136.8,113.1,137.6,112.5z M129.4,94.4
					c0.1-1.2-1.2-2.2-2.8-2.2c-1.5,0-2.4,0.8-2.4,2c0,1.8,0.8,2.6,2.5,2.6C128.1,96.8,129.4,95.6,129.4,94.4z M119.1,87.8
					c5.5-3.7,7.4-11.2,6.5-17.4c-2.1,3.2-4.1,6.3-6,9.5c-1.1,2-1.6,4.2-1.4,6.5c1.1-2.6,1.9-5.3,3.2-7.8c0.2,0.1,0.3,0.1,0.5,0.2
					c-0.4,1.5-0.7,3-1.2,4.5C120.3,84.8,119.8,86.2,119.1,87.8z M114.9,114.9c2.1,0.2,4.3,0.5,6.5,0.7c-6.4-2.6-12.5-1.7-18.5,0.7
					c0.8,0.5,1.6,0.9,2.4,1.2c6.1,2.8,12.3,1.7,18.7-0.2c-5.2-1-10.2-1.4-15.3-1.1C110.6,114.9,112.8,114.8,114.9,114.9z
					 M112.4,151.4c3.3-6.9,2.8-17.8-0.5-20.7c-2.3,6.3-3.1,12.7-0.4,19.3c-0.1-2.4-0.2-4.8-0.3-7.1c0-2.3-0.1-4.7,0.7-7
					c0.8,2.5,0.6,5.1,0.5,7.7C112.4,146.1,112.4,148.7,112.4,151.4z M109,173.8c0.1-1-0.7-1.7-1.8-1.8c-1.1,0-2.1,0.8-2.2,1.8
					c0,0.9,0.8,1.6,2,1.7C108,175.6,109,174.7,109,173.8z M94.9,162.5c4.2,3.3,8.2,5.2,11.3,4.6c-1.3-0.6-2.6-1.1-3.9-1.6
					c0-0.2,0.1-0.3,0.1-0.5c1.3,0.3,2.6,0.5,4.2,0.8C103,163.1,98.9,163.3,94.9,162.5z M103.3,155.7c0.2-0.3,0-1-0.2-1.4
					c-0.8-1.1-2.9-1.4-4-0.5c-0.7,0.5-0.8,1.2-0.1,1.7s1.7,0.8,2.7,1.4C102.3,156.4,102.9,156.2,103.3,155.7z M102.1,143.3
					c-0.8-1.3-1.6-2.4-2.4-3.6c-0.8-1.2-1.6-2.4-2.3-3.6s-1.6-2.2-1.9-3.6c0.1-0.1,0.3-0.2,0.4-0.3c1.9,2.8,3.9,5.6,5.8,8.3
					c-1.5-6.3-6.6-10.3-10.1-15.5c-0.1,0.1-0.3,0.2-0.4,0.3c0.2,0.5,0.5,0.9,0.7,1.4c0.8,2.1,1.7,4.2,2.5,6.3
					c0.3,0.9,0.5,1.8,0.8,2.6C96.3,138.5,99.6,142.2,102.1,143.3z M93,64.8c3.3-2.6,5.1-5.9,6.4-10.1c-4.3,2.8-7.4,6-8.5,11.1
					c0.9-1.4,1.7-2.6,2.4-3.8c0.1,0.1,0.3,0.1,0.4,0.2C93.5,63,93.3,63.9,93,64.8z M91.4,52.4c0.8-2.9,0.9-5.8,0.7-8.8
					c-0.1-1.2-0.3-2.4-0.5-3.6c-6.2,3.7-8.7,12.1-5.4,18.2c0.4-3.2,0.9-6.3,2.4-9.2c-0.9,3.3-1.8,6.7-1.8,10.5
					c1-1.2,1.9-2.2,2.6-3.3C90.3,55,91,53.7,91.4,52.4z M92.8,98.9c-0.5,0.3-0.9,0.5-1.2,0.7c-0.1-0.1-0.2-0.2-0.3-0.2
					c0.6-1.1,1.3-2.1,2-3.3c-2.6,1.7-4.3,6.1-3.2,8.5C91,102.7,91.9,100.9,92.8,98.9z M90.8,86.9c0.8,0,1.3-1,1.1-1.9
					c-0.2-0.9-1-1.6-1.8-1.6c-0.9,0-2.1,0.7-2.4,1.6c-0.1,0.3-0.1,0.8,0,0.8C88.6,86.2,89.6,86.8,90.8,86.9z M87.9,94.2
					c-0.6,0-0.9-0.1-1.2,0c-3.8,1-7.6,1.9-11.4,2.9c-0.5,0.1-0.8,0.6-1.4,0.9c4.5,1.4,11,0.8,14.4-2.2c-1.5,0.3-3.1,0.5-4.7,0.7
					c0-0.2-0.1-0.4-0.1-0.6C84.9,95.4,86.3,94.8,87.9,94.2z"/>
				<path class="st1" d="M171.9,155.9c0,0.1,0,0.2,0,0.3c-7.8,3.2-15.6,5.6-24,2.3c4.6-0.2,9.4,0.5,13.5-2.5
					c-4.1,1.1-8.2,1.7-12.4,1.6c0-0.1,0-0.2,0-0.2c2.1-0.8,4.2-1.6,6.3-2.4c2.6-0.9,5.3-1,8-0.5
					C166.3,155.1,169.1,155.5,171.9,155.9z"/>
				<path class="st1" d="M163.3,129.6c0.6,5,0.9,9.8-2.1,14.2c-1.6,2.3-4,3.2-6.6,3.9c2.4-2.4,4.9-4.8,5.4-8.4
					c-2,3.6-4.8,6.6-8.1,9.3c1.5-3.4,2.7-6.7,4.2-9.9c1.6-3.4,4-6.2,6.7-8.8C162.9,129.8,163.1,129.8,163.3,129.6z"/>
				<path class="st2" d="M156.4,106.2c0.9,1.2,0.8,2.4-0.4,3.3c-1.7,1.3-3.2,1.4-4.9,0.4c-1.1-0.6-1.4-1.6-0.8-2.7
					c0.8-1.4,2-2.2,3.2-2.2C154.9,104.9,155.8,105.4,156.4,106.2z"/>
				<path class="st1" d="M143.3,121.8c4.4-2.7,9.2-3.7,14.3-3.4c-4.5,3.4-9.6,5-15.1,5.4c0-0.1-0.1-0.2-0.1-0.3
					c2.5-1.1,5-2.3,7.5-3.4c0-0.1-0.1-0.2-0.1-0.3C147.4,120,145.4,121,143.3,121.8z"/>
				<path class="st2" d="M146.6,141.4c0.9,0.2,1.5,1,1.5,2c0,2-2.8,4-4.7,3.4c-1.4-0.5-2.1-3.2-1-4.2
					C143.6,141.5,144.9,141,146.6,141.4z"/>
				<path class="st2" d="M141.8,166.9c2.4,0.9,2.8,3.8,0.7,5.6c-0.8,0.7-2,1-2.9,1.4c-1-0.3-1.8-0.5-2.4-0.9
					c-0.5-0.2-0.9-0.5-0.7-1.2c0.1-0.3-0.2-0.8-0.4-1.2c-0.4-0.9-0.1-1.6,0.4-2.3C137.6,166.9,140.1,166.3,141.8,166.9z"/>
				<path class="st2" d="M138.6,110.4c0.3,1-0.4,1.6-1.1,2.1c-0.8,0.6-1.7,1-2.7,0.4c-0.8-0.5-1.5-1-1.4-2.1c0.1-1,0.9-1.7,2-1.9
					c0.2-0.1,0.4-0.1,0.6-0.1c0.2,0,0.5,0,0.7,0.1C137.6,109.1,138.4,109.5,138.6,110.4z"/>
				<path class="st2" d="M126.6,92.2c1.6,0,2.9,1,2.8,2.2c0,1.2-1.4,2.4-2.7,2.4c-1.7,0-2.5-0.8-2.5-2.6
					C124.3,93,125.1,92.2,126.6,92.2z"/>
				<path class="st1" d="M125.6,70.4c0.9,6.2-1,13.7-6.5,17.4c0.6-1.6,1.2-3,1.6-4.5c0.5-1.5,0.8-3,1.2-4.5
					c-0.2-0.1-0.3-0.1-0.5-0.2c-1.3,2.5-2.1,5.2-3.2,7.8c-0.2-2.3,0.3-4.5,1.4-6.5C121.5,76.7,123.5,73.6,125.6,70.4z"/>
				<path class="st1" d="M121.4,115.6c-2.2-0.2-4.4-0.5-6.5-0.7c-2.2-0.1-4.3,0-6.2,1.3c5.1-0.3,10.1,0.1,15.3,1.1
					c-6.4,1.9-12.6,3-18.7,0.2c-0.8-0.3-1.6-0.7-2.4-1.2C108.9,113.9,115,113,121.4,115.6z"/>
				<path class="st1" d="M111.9,130.7c3.3,2.9,3.8,13.8,0.5,20.7c0-2.7,0-5.3,0-7.8c0.1-2.6,0.3-5.2-0.5-7.7c-0.8,2.3-0.7,4.7-0.7,7
					c0.1,2.3,0.2,4.7,0.3,7.1C108.8,143.4,109.6,137,111.9,130.7z"/>
				<path class="st2" d="M107.3,172c1.1,0.1,1.9,0.8,1.8,1.8c0,0.9-1,1.8-2,1.7c-1.2-0.1-2-0.8-2-1.7
					C105.1,172.8,106.1,172,107.3,172z"/>
				<path class="st1" d="M106.3,167.1c-3.1,0.6-7.1-1.3-11.3-4.6c4,0.8,8.1,0.6,11.7,3.3c-1.6-0.3-2.9-0.5-4.2-0.8
					c0,0.2-0.1,0.3-0.1,0.5C103.6,166,104.9,166.5,106.3,167.1z"/>
				<path class="st2" d="M103,154.3c0.2,0.4,0.4,1.1,0.2,1.4c-0.3,0.5-0.9,0.7-1.6,1.2c-1-0.6-2-0.9-2.7-1.4s-0.6-1.2,0.1-1.7
					C100.1,152.9,102.3,153.2,103,154.3z"/>
				<path class="st1" d="M99.8,139.7c0.8,1.2,1.6,2.3,2.4,3.6c-2.5-1.1-5.8-4.8-6.9-7.7c-0.3-0.8-0.5-1.7-0.8-2.6
					c-0.8-2.1-1.7-4.2-2.5-6.3c-0.2-0.5-0.5-0.9-0.7-1.4c0.1-0.1,0.3-0.2,0.4-0.3c3.5,5.2,8.6,9.2,10.1,15.5
					c-1.9-2.7-3.9-5.5-5.8-8.3c-0.1,0.1-0.3,0.2-0.4,0.3c0.3,1.4,1.2,2.4,1.9,3.6S98.9,138.5,99.8,139.7z"/>
				<path class="st1" d="M99.4,54.7c-1.3,4.2-3.1,7.5-6.4,10.1c0.2-0.9,0.5-1.8,0.7-2.6c-0.1-0.1-0.3-0.1-0.4-0.2
					c-0.7,1.2-1.5,2.4-2.4,3.8C92,60.7,95.1,57.5,99.4,54.7z"/>
				<path class="st1" d="M92.1,43.6c0.2,3,0.1,5.9-0.7,8.8c-0.4,1.3-1.2,2.6-2,3.8c-0.7,1.1-1.6,2.1-2.6,3.3c0-3.8,0.9-7.2,1.8-10.5
					c-1.5,2.9-2,6-2.4,9.2c-3.3-6.1-0.8-14.5,5.4-18.2C91.8,41.2,92,42.4,92.1,43.6z"/>
				<path class="st1" d="M91.6,99.6c0.3-0.2,0.7-0.4,1.2-0.7c-0.9,2-1.8,3.8-2.7,5.7c-1.1-2.4,0.6-6.8,3.2-8.5
					c-0.7,1.2-1.4,2.2-2,3.3C91.4,99.4,91.5,99.5,91.6,99.6z"/>
				<path class="st2" d="M91.8,85c0.2,0.9-0.3,1.9-1.1,1.9c-1.1-0.1-2.1-0.7-3.1-1.1c-0.1,0-0.1-0.5,0-0.8c0.3-0.9,1.5-1.6,2.4-1.6
					C90.8,83.4,91.6,84.1,91.8,85z"/>
				<path class="st1" d="M86.8,94.2c0.3-0.1,0.6,0,1.2,0c-1.6,0.6-3,1.2-4.4,1.7c0,0.2,0.1,0.4,0.1,0.6c1.6-0.2,3.2-0.4,4.7-0.7
					c-3.4,3-9.9,3.6-14.4,2.2c0.6-0.3,0.9-0.8,1.4-0.9C79.1,96.1,82.9,95.2,86.8,94.2z"/>
			</g>
			<g>
			</g>
		</g>
	</g>
	<path class="st0" d="M176.8,99.3h-0.7c0-2.1-0.4-3.7-1.1-4.8c-0.7-1.1-1.6-1.6-2.7-1.6c-1.9,0-3.4,0.5-4.7,1.6
		c-0.6,0.5-1.2,1.1-1.7,1.6c-2.1,1.6-3.8,2.6-5.1,3.1s-3.2,0.7-5.6,0.7c-6.2,0-11.3-1.9-15.5-5.8c-5.1-4.6-7.6-11.3-7.6-20.1
		c0-8.5,2.8-15.5,8.3-21.1c4.7-4.7,9.6-7.1,14.6-7.1c3.4,0,6.1,0.5,8.2,1.5c2.6,1.3,5.2,3.6,7.8,7.1l4.6-8.6v23.1h-0.7
		c-1.1-7.2-3.5-12.8-7-16.8c-3.3-3.7-7.1-5.5-11.5-5.5c-4.2,0-7.5,2.3-9.9,6.9s-3.6,11.2-3.6,19.6s1.1,14.8,3.4,19.4
		c2.2,4.5,5.3,6.8,9.3,6.8c3.7,0,6.6-1,8.6-3c2.1-2,3.1-4.8,3.1-8.6v-9.9c0-1.5-0.1-2.4-0.2-2.8c-0.2-0.4-0.5-0.7-1.1-0.9
		c-0.5-0.2-1.6-0.4-3.3-0.6c-1.7-0.2-3.1-0.2-4.3-0.2v-0.7h28.2v0.7c-1.2,0-2.7,0.1-4.5,0.3c-1.8,0.2-3,0.4-3.6,0.5s-1,0.3-1.2,0.6
		c-0.3,0.5-0.5,1.6-0.5,3.1V99.3L176.8,99.3z"/>
	<path class="st0" d="M86.1,149.3v-22.5c0-4.9-0.8-8.3-2.5-10.1c-1.7-1.8-4.7-2.8-9-2.8v-0.7h22.9v0.7c-3.8,0-6.5,0.9-8,2.8
		c-1.5,1.8-2.3,5.2-2.3,10.1v38.8h-1.9l-32.1-42.7l-0.9-1.1c-0.2,0-0.2,0.5-0.2,1.5v26.4c0,5.9,0.8,9.9,2.4,11.8
		c1.6,1.9,4.6,2.9,9,2.9v0.8H40v-0.8c4.2,0,7.1-0.9,8.6-2.6c1.6-1.7,2.3-5.1,2.3-10.2V124c0-3-0.8-5.4-2.4-7.1
		c-1.9-2.1-4.8-3.1-8.6-3.1v-0.7h16.7l27.9,36.4c0.7,0.9,1.1,1.4,1.3,1.4C86.1,150.9,86.1,150.4,86.1,149.3z"/>
</g>
</svg>
