<?xml version="1.0" encoding="utf-8"?>
<!-- Generator: Adobe Illustrator 21.0.2, SVG Export Plug-In . SVG Version: 6.00 Build 0)  -->
<svg version="1.1" id="Capa_1" xmlns="http://www.w3.org/2000/svg" xmlns:xlink="http://www.w3.org/1999/xlink" x="0px" y="0px"
	 viewBox="0 0 226.5 227.4" style="enable-background:new 0 0 226.5 227.4;" xml:space="preserve">
<style type="text/css">
	.st0{fill:#333333;}
</style>
<g>
	<path class="st0" d="M115.7,61.9c1.7-0.9,3.4-1.8,5-2.7c0.3-0.1,0.4-0.5,0.6-0.8c0.8-1.3,2.5-1.8,4.3-1.4c1.6,0.4,2.7,1.5,2.8,3
		c0.1,1.5-0.7,2.8-2.1,3.4c-2.2,0.9-5-0.5-5.6-2.8c0-0.1-0.1-0.2-0.2-0.4c-1.6,0.6-3.1,1.4-4.2,2.7c-0.3,0.4-0.5,1.1-0.5,1.6
		c0.4,3.4,1.5,6.7,2.8,9.9c0.2,0.5,0.5,0.9,0.8,1.2c4.6,5.2,8.5,10.9,11,17.4c0.6,1.6,1.1,3.2,1.6,5c0.6-3.7,2.3-6.6,4.3-9.5
		c0.3-0.4,0.4-1,0.4-1.6c0-0.9,0.1-1.8-0.1-2.6c-0.3-1.4-0.8-2.8-1.3-4.2c-0.1-0.2-0.7-0.3-1-0.2c-1.5,0.3-2.8,0.3-3.7-1.1
		c-1.1-1.6-0.7-3.7,1-4.7c1.4-0.9,3.5-0.8,4.8,0.2c1.6,1.3,1.7,3.1,0.1,4.4c-0.2,0.2-0.5,0.4-0.8,0.6c2,2.2,1.9,4.8,1.8,7.3
		c3.2-3.4,6.4-6.9,9.7-10.4c-1.3-2.5-0.8-4.4,1.9-5.9c2.5-1.4,5-0.8,6.5,1.6c0.9,1.4,0.8,2.9-0.5,4c-2.1,1.7-4.5,2.3-7.3,1.2
		c-3.4,3.9-7.5,7.2-10.6,11.9c0.4-0.3,0.6-0.4,0.8-0.5c5.5-4,11.7-5.4,18.4-5.1c0.2,0,0.5,0.2,0.7,0.3c-0.1,0.3-0.2,0.6-0.4,0.8
		c-2.5,2.3-5.5,3.7-8.6,4.8c-3.1,1.1-6.3,1.5-9.5,1.8c-2.4,0.2-3.9,1.2-4.6,3.6c-0.8,2.6-1.6,5.2-1.3,8c0.9,6.3-0.6,12.3-3,18
		c-1.4,3.4-3,6.6-4.6,10c-0.1,0.3-0.2,0.5-0.5,1c1.9-1.6,3.7-3,5.4-4.4c0.5-0.4,1-0.8,1.5-1.2c2.9-1.9,4.9-4.5,6.2-7.6
		c0.7-1.6,1.4-3.3,2.2-4.9c-1.8-1.4-2.3-2.6-1.7-4.6c0.5-1.7,2.2-2.9,4.4-3.1c2.9-0.2,4.8,1.6,4.2,4.1c-0.5,2.3-3.1,4-5.4,3.7
		c-0.2,0-0.5-0.1-0.8-0.1c-1.1,3.7-2.5,7.4-5.2,10.3c0.3-0.1,0.5-0.2,0.8-0.4c2.7-1.7,5.4-3.5,8.2-5.1c2.6-1.5,4.2-3.7,5.4-6.4
		c1.3-3,2.4-6,3.9-8.9c1.7-3.3,4.1-6.1,6.9-8.6c0.2-0.2,0.6-0.3,0.9-0.4c0.1,0.3,0.3,0.6,0.4,0.9c0.5,3,0.8,6,0.4,9.1
		c-0.6,4-2.4,7.1-6.1,9.1c-2.8,1.5-5.7,2.9-8.5,4.5c-3.3,1.9-6.5,4-9.8,6c0,0.1,0.1,0.2,0.1,0.3c1-0.1,2-0.3,3-0.4
		c0.8-0.1,1.6,0,2.3-0.2c2.1-0.6,4.2-1.2,6.2-2.1c4.6-2.1,9.3-2.2,14.1-1.1c2.2,0.5,4.4,0.7,6.6,1c0.5,0.1,1,0.5,1.5,0.8
		c-0.5,0.3-0.9,0.8-1.4,1c-5.6,2.7-11.5,4.4-17.8,4.3c-2.6,0-5.1-0.4-7.5-1.6c-2.7-1.3-5.5-1.7-8.4-1c-0.4,0.1-0.7,0.2-1.1,0.3
		c-4.2,2.5-8.3,5.2-11.5,8.9c-0.1,0.1-0.1,0.2,0,0c1.8-0.2,3.7-0.4,5.6-0.5c0.9,0,1.9,0.7,2.7,0.5c0.8-0.2,1.4-1.2,2.2-1.6
		c1.4-0.8,2.8-1,4.4-0.7c3.4,0.6,4.8,4.5,2.6,7.2c-1.6,2-4.8,2.6-7.1,1.4c-1.4-0.7-2-2-2.2-3.4c-0.1-0.6,0-1.2,0-1.8
		c-3.2-1.2-6.4-0.7-9.4,0.5c-0.5,0.2-0.9,0.9-1.2,1.4c-3.1,4.9-6.2,9.8-9.4,14.6c-0.7,1.1-1.6,2-2.4,3c-0.2,0.2-0.5,0.3-0.8,0.4
		c0-0.3,0-0.7,0.1-0.9c1.2-1.9,2.4-3.8,3.6-5.7c1.2-1.9,2.5-3.8,3.8-5.7c0.5-0.7,0.4-1.2,0-1.8c-1.2-1.7-2.6-3-4.3-4.1
		c-0.3-0.2-0.8-0.3-1.1-0.2c-1.1,0.6-2.1,1.2-3.2,1.9c-0.2,0.1-0.2,0.5-0.1,0.8c0.1,2.3-1.2,3.7-3.3,3.4c-2-0.2-3.3-1.8-2.9-3.6
		c0.3-1.7,2.3-2.7,4.1-2.1c0.5,0.2,1,0.5,1.6,0.8c0.4-0.4,0.9-0.8,1.4-1.2c0.5-0.3,1.1-0.6,1.8-0.8c-1.4-1-2.9-1.2-4.5-1.3
		c-1.1-0.1-2.2-0.2-3.3-0.3c-3.1-0.3-5.7-1.5-8.2-3.2c-1.2-0.8-2.4-1.6-3.6-2.5c-0.3-0.3-0.4-0.8-0.6-1.2c0.4,0,0.8-0.2,1.2-0.1
		c2.8,0.5,5.6,0.9,8.4,1.5c2.7,0.6,5.1,1.7,6.8,3.9c0.3,0.3,0.7,0.5,1.1,0.7c2.9,1.4,5.9,2.8,8.1,5.3c0.6,0.6,1.1,1.4,1.6,2
		c0.1,0,0.2,0,0.3-0.1c-0.2-1.3-0.3-2.6-0.6-3.8c-1.5-4.8-3.8-9.2-6.5-13.4c-0.2-0.3-0.6-0.5-1-0.6c-2.4-0.2-4.8-0.3-7.2-0.4
		c-0.3,0-0.7,0.3-0.9,0.5c-1.7,1.5-4.6,1.2-6-0.7c-1.1-1.6-0.4-3.5,1.5-4.1c1.5-0.5,3.8,0.2,4.8,1.5c0.3,0.5,0.5,1.2,0.7,1.8
		c2.2-0.8,4.5-0.7,6.9,0c-1.4-1.8-2.8-3.5-4.2-5.3c-1.9-2.6-4.2-4.8-7-6.6c-3.4-2.2-5.7-5.4-6.7-9.5c-0.5-2.2-1.7-4.3-2.5-6.4
		c-0.5-1.2-0.9-2.3-1.4-3.5c-0.1-0.3,0.1-0.6,0.1-0.9c0.3,0.1,0.7,0.1,0.9,0.3c0.9,0.8,1.9,1.6,2.6,2.5c1.8,2.1,3.4,4.4,5.2,6.5
		c1.9,2.3,3.1,5,4.1,7.9s2.4,5.6,4.5,7.9c1.5,1.7,2.9,3.6,4.5,5.3c-0.1-0.3-0.2-0.5-0.3-0.8c-1.7-4-2.8-8.1-2.5-12.5
		c0.2-2.3,0.8-4.7,1.2-7c0.2-1.2,0.5-2.4,0.9-3.5c0.1-0.3,0.4-0.7,0.5-1c0.3,0.2,0.6,0.4,0.8,0.7c1.7,2.3,2.6,5,3.1,7.9
		c0.8,5,0.2,9.9-1.7,14.5c-0.9,2.2-0.4,4.2,0.8,6.1c2.6,4.4,4.8,8.9,5.9,14c0.1,0.6,0.1,1.1,0.2,1.7c0.1,0,0.2,0,0.2-0.1
		c4.7-7.6,9-15.4,11.7-24c2.9-9.5,1.4-18.4-3.1-27c-0.7-1.3-1.5-2.4-2.2-3.7c-0.3-0.6-0.7-0.8-1.4-0.6c-3.2,0.6-6.4,1.4-9.6,1.8
		c-5.3,0.7-10.2-0.4-14.8-3c-0.3-0.2-0.6-0.5-0.6-0.7c0.1-0.3,0.4-0.6,0.7-0.7c6.8-3.1,13.7-3.7,20.7-0.7c0.9,0.4,1.9,0.8,3,1.3
		c-0.2-0.3-0.3-0.6-0.4-0.7c-3.8-5.2-8.2-9.8-12.8-14.3c-1.6-1.5-3.1-3-4.7-4.5c-0.4-0.4-1-0.8-1.5-0.9c-2.6-0.5-5.3-0.8-7.9-1.1
		c-0.4,0-1.1,0.4-1.4,0.8c-1.2,1.9-2.2,3.8-3.3,5.7c-1,1.8-2,3.6-3.1,5.4c-0.1,0.2-0.5,0.4-0.7,0.4s-0.4-0.3-0.5-0.5
		c-0.5-3.2-0.2-6.4,1.8-9.1c0.3-0.4,0.6-0.8,1.2-1.4c-1.6,0.8-2.9,1.4-4.2,2.1c-4.2,2.2-8.6,2.3-13.2,1.5c-0.5-0.1-1.3-0.7-1.3-1.1
		c-0.1-0.5,0.4-1.3,0.8-1.6c0.8-0.5,1.8-0.9,2.8-1.1c2-0.6,4.1-1,6.1-1.7c2.5-0.8,5.1-0.6,7.6-0.4c1.6,0.1,3.1,0,4.7-0.1
		c-1.9-1.5-3.9-2.8-4.8-5.1c-2.7-0.2-4.1-0.9-4.2-2.4c-0.2-1.5,1.1-3.1,2.7-3.6c1.5-0.5,2.9,0.1,3.7,1.6c0.8,1.6,0.5,2.8-1.3,4.2
		c1.2,1.1,2.3,2.3,3.5,3.4c2.1,1.9,4.9,2.1,7.6,2.4c0.8,0.1,1.5,0.3,2.6,0.4c-1.2-1.2-2.2-2.2-3.2-3.2c-4.6-4.7-8.8-9.7-11.9-15.6
		c-2-3.8-3.2-7.9-3.6-12.2c0-0.5-0.2-1-0.4-1.5c-1.2-3-1.9-6.1-2.3-9.3c-0.3-2,0.1-3.9,1-5.7c1.5-3.3,3.8-6,6.7-8.2
		c0.8-0.6,1.1-0.4,1.3,0.5c0.9,4.1,1,8.1,0.1,12.2c-0.3,1.4-1,2.7-1.8,3.9c-0.7,1.1-1.5,2.1-2.4,3.2c-1.6,2-2,4.2-1.4,6.6
		c0.5,2,1,4,1.5,5.9c0.2,0,0.3,0,0.5,0c0.3-1.6,0.6-3.1,0.8-4.7c0.6-4.1,2.8-7.2,5.8-9.8c1.1-1,2.3-1.8,3.5-2.7
		c0.3-0.2,0.7-0.2,1-0.3c0,0.4,0.2,0.7,0.1,1.1c-0.6,3.4-2.1,6.4-4.5,9c-1.3,1.5-2.9,2.8-4.2,4.3c-2,2.3-2.3,5.1-0.9,7.8
		c2.9,5.5,6.9,10.2,11.3,14.6c5.1,5.1,10.2,10.1,15.4,15.1c0.5,0.5,1,0.9,1.5,1.4c-0.4-1.4-0.8-2.8-1.2-4.2
		c-1.2-4.2-1.5-8.4-0.4-12.6c0.2-0.6,0.1-1.3,0.1-2c-0.3-4.3,0.8-8.1,3.4-11.6c1.7-2.4,3.1-5,4.7-7.5c0.1-0.2,0.4-0.3,0.6-0.5
		c0.1,0.2,0.3,0.3,0.4,0.5c0.8,5.7,0.4,11.2-3,16.2c-0.7,1.1-1.6,2.1-2.7,2.9c-2.3,1.6-3,3.8-3,6.4
		C115.6,60.7,115.7,61.3,115.7,61.9z M152.5,113.6c2.6-0.7,5-1.6,6.6-3.9c3-4.4,2.7-9.2,2.1-14.2c-0.2,0.2-0.4,0.2-0.5,0.3
		c-2.7,2.6-5.1,5.4-6.7,8.8c-1.5,3.2-2.7,6.5-4.2,9.9c3.3-2.7,6.1-5.7,8.1-9.3C157.4,108.8,154.9,111.2,152.5,113.6z M84.7,25.4
		c1-1.2,1.9-2.2,2.6-3.3c0.8-1.2,1.6-2.5,2-3.8c0.8-2.9,0.9-5.8,0.7-8.8c-0.1-1.2-0.3-2.4-0.5-3.6c-6.2,3.7-8.7,12.1-5.4,18.2
		c0.4-3.2,0.9-6.3,2.4-9.2C85.6,18.2,84.7,21.6,84.7,25.4z M169.8,122.1c0-0.1,0-0.2,0-0.3c-2.9-0.4-5.7-0.8-8.6-1.4
		c-2.7-0.5-5.4-0.4-8,0.5c-2.1,0.8-4.2,1.6-6.3,2.4c0,0,0,0.1,0,0.2c4.2,0.1,8.3-0.5,12.4-1.6c-4.1,3-8.9,2.3-13.5,2.5
		C154.2,127.7,162,125.3,169.8,122.1z M121.9,83.2c-5.2-1-10.2-1.4-15.3-1.1c1.9-1.3,4-1.4,6.2-1.3c2.1,0.2,4.3,0.5,6.5,0.7
		c-6.4-2.6-12.5-1.7-18.5,0.7c0.8,0.5,1.6,0.9,2.4,1.2C109.3,86.2,115.5,85.1,121.9,83.2z M110.3,117.3c3.3-6.9,2.8-17.8-0.5-20.7
		c-2.3,6.3-3.1,12.7-0.4,19.3c-0.1-2.4-0.2-4.8-0.3-7.1c0-2.3-0.1-4.7,0.7-7c0.8,2.5,0.6,5.1,0.5,7.7
		C110.3,112,110.3,114.6,110.3,117.3z M116.1,52.3c1.1-2.6,1.9-5.3,3.2-7.8c0.2,0.1,0.3,0.1,0.5,0.2c-0.4,1.5-0.7,3-1.2,4.5
		c-0.4,1.5-1,2.9-1.6,4.5c5.5-3.7,7.4-11.2,6.5-17.4c-2.1,3.2-4.1,6.3-6,9.5C116.4,47.8,115.9,50,116.1,52.3z M137.5,139.8
		c0.9-0.4,2.1-0.7,2.9-1.4c2.1-1.8,1.7-4.7-0.7-5.6c-1.7-0.6-4.2,0-5.3,1.4c-0.5,0.7-0.8,1.4-0.4,2.3c0.2,0.4,0.5,0.9,0.4,1.2
		c-0.2,0.7,0.2,1,0.7,1.2C135.7,139.3,136.5,139.5,137.5,139.8z M89.5,90.9c-0.1,0.1-0.3,0.2-0.4,0.3c0.2,0.5,0.5,0.9,0.7,1.4
		c0.8,2.1,1.7,4.2,2.5,6.3c0.3,0.9,0.5,1.8,0.8,2.6c1.1,2.9,4.4,6.6,6.9,7.7c-0.8-1.3-1.6-2.4-2.4-3.6s-1.6-2.4-2.3-3.6
		c-0.7-1.2-1.6-2.2-1.9-3.6c0.1-0.1,0.3-0.2,0.4-0.3c1.9,2.8,3.9,5.6,5.8,8.3C98.1,100.1,93,96.1,89.5,90.9z M81.5,62.4
		c0-0.2-0.1-0.4-0.1-0.6c1.4-0.5,2.8-1.1,4.4-1.7c-0.6,0-0.9-0.1-1.2,0c-3.8,1-7.6,1.9-11.4,2.9c-0.5,0.1-0.8,0.6-1.4,0.9
		c4.5,1.4,11,0.8,14.4-2.2C84.7,62,83.1,62.2,81.5,62.4z M147.6,85.7c0,0.1,0.1,0.2,0.1,0.3c-2.5,1.1-5,2.3-7.5,3.4
		c0,0.1,0.1,0.2,0.1,0.3c5.5-0.4,10.6-2,15.1-5.4c-5.1-0.3-9.9,0.7-14.3,3.4C143.3,86.9,145.3,85.9,147.6,85.7z M151.4,70.9
		c-1.2,0-2.4,0.8-3.2,2.2c-0.6,1.1-0.3,2.1,0.8,2.7c1.7,1,3.2,0.9,4.9-0.4c1.2-0.9,1.3-2.1,0.4-3.3
		C153.6,71.3,152.8,70.8,151.4,70.9z M145.9,109.3c0-1-0.6-1.8-1.5-2c-1.6-0.4-3,0.1-4.2,1.2c-1.1,1-0.4,3.7,1,4.2
		C143.1,113.3,145.9,111.3,145.9,109.3z M97.3,20.6c-4.3,2.8-7.4,6-8.5,11.1c0.9-1.4,1.7-2.6,2.4-3.8c0.1,0.1,0.3,0.1,0.4,0.2
		c-0.2,0.8-0.5,1.7-0.7,2.6C94.2,28.1,96,24.8,97.3,20.6z M100.2,131.4c0-0.2,0.1-0.3,0.1-0.5c1.3,0.3,2.6,0.5,4.2,0.8
		c-3.6-2.7-7.7-2.5-11.7-3.3c4.2,3.3,8.2,5.2,11.3,4.6C102.8,132.4,101.5,131.9,100.2,131.4z M124.5,58.1c-1.5,0-2.4,0.8-2.4,2
		c0,1.8,0.8,2.6,2.5,2.6c1.3,0,2.7-1.2,2.7-2.4C127.4,59.1,126.1,58.1,124.5,58.1z M133.9,74.7c-0.2,0-0.4,0-0.6,0.1
		c-1.1,0.2-1.9,0.9-2,1.9c-0.1,1.1,0.6,1.6,1.4,2.1c1,0.6,1.9,0.2,2.7-0.4c0.7-0.5,1.4-1.1,1.1-2.1c-0.2-0.9-1-1.3-1.9-1.5
		C134.4,74.7,134.1,74.7,133.9,74.7z M99.5,122.8c0.7-0.5,1.3-0.7,1.6-1.2c0.2-0.3,0-1-0.2-1.4c-0.8-1.1-2.9-1.4-4-0.5
		c-0.7,0.5-0.8,1.2-0.1,1.7C97.5,121.9,98.5,122.2,99.5,122.8z M87.9,49.3c-0.9,0-2.1,0.7-2.4,1.6c-0.1,0.3-0.1,0.8,0,0.8
		c1,0.4,2,1,3.1,1.1c0.8,0,1.3-1,1.1-1.9C89.5,50,88.7,49.3,87.9,49.3z M105.1,137.9c-1.1,0-2.1,0.8-2.2,1.8c0,0.9,0.8,1.6,2,1.7
		c1,0.1,2-0.8,2-1.7C107,138.7,106.2,138,105.1,137.9z M89.5,65.5c-0.1-0.1-0.2-0.2-0.3-0.2c0.6-1.1,1.3-2.1,2-3.3
		c-2.6,1.7-4.3,6.1-3.2,8.5c0.9-1.9,1.8-3.7,2.7-5.7C90.2,65.1,89.8,65.3,89.5,65.5z"/>
</g>
<path class="st0" d="M174.6,65.2h-0.7c0-2.1-0.4-3.7-1.1-4.8c-0.7-1.1-1.6-1.6-2.7-1.6c-1.9,0-3.4,0.5-4.7,1.6
	c-0.6,0.5-1.2,1.1-1.7,1.6c-2.1,1.6-3.8,2.6-5.1,3.1c-1.3,0.5-3.2,0.7-5.6,0.7c-6.2,0-11.3-1.9-15.5-5.8c-5.1-4.6-7.6-11.3-7.6-20.1
	c0-8.5,2.8-15.5,8.3-21.1c4.7-4.7,9.6-7.1,14.6-7.1c3.4,0,6.1,0.5,8.2,1.5c2.6,1.3,5.2,3.6,7.8,7.1l4.6-8.6v23.1h-0.7
	c-1.1-7.2-3.5-12.8-7-16.8c-3.3-3.7-7.1-5.5-11.5-5.5c-4.2,0-7.5,2.3-9.9,6.9s-3.6,11.2-3.6,19.6s1.1,14.8,3.4,19.4
	c2.2,4.5,5.3,6.8,9.3,6.8c3.7,0,6.6-1,8.6-3c2.1-2,3.1-4.8,3.1-8.6v-9.9c0-1.5-0.1-2.4-0.2-2.8c-0.2-0.4-0.5-0.7-1.1-0.9
	c-0.5-0.2-1.6-0.4-3.3-0.6c-1.7-0.2-3.1-0.2-4.3-0.2v-0.7h28.2v0.7c-1.2,0-2.7,0.1-4.5,0.3c-1.8,0.2-3,0.4-3.6,0.5s-1,0.3-1.2,0.6
	c-0.3,0.5-0.5,1.6-0.5,3.1L174.6,65.2L174.6,65.2z"/>
<path class="st0" d="M84,115.2V92.7c0-4.9-0.8-8.3-2.5-10.1c-1.7-1.8-4.7-2.8-9-2.8v-0.7h22.9v0.7c-3.8,0-6.5,0.9-8,2.8
	c-1.5,1.8-2.3,5.2-2.3,10.1v38.8h-1.9L51.1,88.8l-0.9-1.1c-0.2,0-0.2,0.5-0.2,1.5v26.4c0,5.9,0.8,9.9,2.4,11.8s4.6,2.9,9,2.9v0.8
	H37.9v-0.8c4.2,0,7.1-0.9,8.6-2.6c1.6-1.7,2.3-5.1,2.3-10.2V89.9c0-3-0.8-5.4-2.4-7.1c-1.9-2.1-4.8-3.1-8.6-3.1V79h16.7l27.9,36.4
	c0.7,0.9,1.1,1.4,1.3,1.4C83.9,116.8,84,116.3,84,115.2z"/>
<g>
	<path class="st0" d="M10.9,208.2c-0.1,0.3-0.1,0.5-0.2,0.8c0,0.3-0.1,0.5-0.1,0.8c0,0.3-0.1,0.5-0.1,0.8c0,0.3-0.1,0.6-0.1,0.9
		c0,0.4,0,0.7,0,1s0.1,0.5,0.1,0.6c0,0.1,0,0.1,0,0.2c0,0,0,0.1,0,0.1c0,0.1,0,0.1-0.1,0.1c-0.1,0-0.1,0-0.2,0
		c-0.4-0.1-0.7-0.2-0.9-0.4c-0.2-0.2-0.4-0.5-0.6-0.9c-0.1-0.3-0.2-0.7-0.3-1.1c0-0.4,0-0.8,0-1.2c0-0.4,0.1-0.8,0.2-1.3
		c0.1-0.5,0.2-1,0.3-1.6s0.3-1.2,0.4-1.8c0.1-0.6,0.3-1.2,0.4-1.9c0.2-0.7,0.3-1.3,0.4-1.8c0.1-0.5,0.2-1,0.3-1.5
		c-0.3,0.4-0.6,0.8-0.9,1.2c-0.3,0.4-0.5,0.7-0.8,0.9c-0.1,0.1-0.3,0.3-0.5,0.4c-0.2,0.1-0.3,0.3-0.5,0.4s-0.3,0.2-0.5,0.3
		s-0.3,0.1-0.5,0.1c-0.3,0-0.5-0.1-0.6-0.3v0c0,0,0,0,0-0.1c0-0.1,0-0.1,0-0.2v0c0,0,0,0,0.1,0s0.1-0.1,0.2-0.1
		c0.1-0.1,0.2-0.2,0.4-0.3c0.2-0.1,0.3-0.3,0.5-0.4c0.3-0.3,0.6-0.7,0.9-1c0.3-0.3,0.5-0.6,0.8-0.9l1.8-2.6c0-0.1,0.1-0.2,0.2-0.2
		s0.2,0,0.3,0c0.4,0,0.7,0.1,0.9,0.3c0.2,0.2,0.4,0.4,0.5,0.6c0.1,0.3,0.2,0.5,0.2,0.9s0,0.7,0,1c0,0.3-0.1,0.5-0.1,0.8
		c0,0.3-0.1,0.6-0.1,0.8s-0.1,0.5-0.2,0.7s-0.1,0.4-0.1,0.6l-0.6,2.5c-0.1,0.5-0.3,1-0.4,1.5S11,207.7,10.9,208.2z"/>
	<path class="st0" d="M12.7,209.7c0-0.1,0.1-0.1,0.2-0.2c0.1,0,0.2-0.1,0.2-0.1s0.2,0,0.2,0.1s0.1,0.1,0.1,0.2h0
		c0.1,0.4,0.2,0.7,0.4,1s0.4,0.5,0.7,0.7c0.3,0.2,0.6,0.3,0.9,0.4c0.3,0.1,0.7,0.2,1,0.2c0.6,0,1.2-0.2,1.7-0.5
		c0.5-0.4,0.9-0.8,1.3-1.4c0.3-0.5,0.6-1.2,0.8-1.8s0.3-1.3,0.4-1.9c0-0.4,0-0.9,0-1.3c0-0.4-0.1-0.8-0.3-1
		c-0.1-0.3-0.4-0.5-0.6-0.7c-0.3-0.2-0.6-0.3-0.9-0.3c-0.4,0-0.8,0.1-1.2,0.3c-0.4,0.2-0.8,0.5-1.1,0.9c-0.1,0.1-0.2,0.2-0.3,0.3
		c-0.1,0.1-0.2,0.2-0.2,0.3c-0.1,0.1-0.1,0.2-0.2,0.2c-0.1,0.1-0.1,0.1-0.1,0.2c-0.1,0.1-0.3,0.2-0.5,0.2c-0.2,0-0.4,0.1-0.6,0.1
		c-0.1,0-0.3,0-0.4,0c-0.1,0-0.2-0.1-0.3-0.1h0c-0.2-0.1-0.3-0.3-0.3-0.6c0-0.3,0-0.6,0-1l0-0.2c0-0.3,0.1-0.7,0.1-1
		c0-0.4,0.1-0.7,0.1-1.2s0.1-0.9,0.1-1.4s0.1-1.1,0.2-1.7c0-0.3,0.1-0.6,0.1-0.7c0.1-0.2,0.1-0.3,0.2-0.4c0.1-0.1,0.2-0.1,0.4-0.1
		c0.1,0,0.3,0,0.5,0c0.1,0,0.1,0,0.2,0s0.2,0,0.3,0c0.3,0,0.7,0,1,0c0.4,0,0.8,0,1.1-0.1c0.4,0,0.8,0,1.2-0.1c0.4,0,0.8,0,1.1,0
		c0.2,0,0.5,0,0.7,0c0.2,0,0.4,0,0.6,0.1c0.2,0,0.4,0.1,0.6,0.2c0.2,0.1,0.4,0.2,0.6,0.4c0.2,0.2,0.3,0.4,0.4,0.6s0.1,0.5,0,0.9
		c0,0.1,0,0.2,0,0.2s-0.1,0.1-0.1,0.1c-0.1,0-0.1,0-0.1-0.1c-0.1,0-0.2-0.1-0.3-0.2c-0.1-0.1-0.3-0.1-0.5-0.1
		c-0.4-0.1-0.7-0.1-0.9-0.1c-0.3,0-0.5,0-0.8,0l-0.6,0.1c-0.4,0-0.8,0.1-1.2,0.1c-0.4,0-0.8,0.1-1.2,0.1c0,0,0,0-0.1,0
		c0,0,0,0-0.1,0c-0.1,0-0.2,0-0.3,0c-0.1,0-0.2,0-0.3,0c-0.1,0.3-0.1,0.7-0.1,1.1c0,0.4-0.1,0.8-0.1,1.2c0,0.3-0.1,0.6-0.1,0.9
		c0,0.3-0.1,0.6-0.1,0.8c0.4-0.3,0.9-0.6,1.4-0.7c0.5-0.1,0.9-0.2,1.4-0.2c0.8,0,1.5,0.1,2.1,0.4c0.6,0.3,1,0.6,1.4,1.1
		s0.6,1,0.7,1.6s0.2,1.2,0.1,1.8c-0.1,0.8-0.3,1.5-0.6,2.3c-0.3,0.8-0.8,1.4-1.3,2c-0.6,0.6-1.2,1.1-2,1.5c-0.8,0.4-1.7,0.6-2.6,0.6
		c-0.4,0-0.8-0.1-1.3-0.3s-0.9-0.4-1.3-0.7c-0.4-0.3-0.7-0.6-1-1c-0.3-0.4-0.4-0.8-0.3-1.3c0-0.1,0-0.2,0-0.2
		C12.7,209.9,12.7,209.8,12.7,209.7z"/>
	<path class="st0" d="M38.8,213.8c-0.9,0-1.5-0.2-1.9-0.7c-0.4-0.4-0.5-1.1-0.5-1.9c0-0.1,0-0.2,0-0.3c0-0.1,0-0.2,0-0.3
		c0-0.1,0-0.1,0-0.2s0-0.1,0-0.1s0-0.1,0-0.1c0-0.1,0-0.1,0-0.2c-0.3,0.5-0.6,0.9-0.9,1.4c-0.3,0.5-0.7,0.9-1.1,1.2
		c-0.4,0.4-0.8,0.6-1.2,0.9c-0.4,0.2-0.8,0.3-1.3,0.3c-0.4,0-0.7-0.1-1-0.2s-0.5-0.3-0.7-0.5c-0.2-0.2-0.3-0.5-0.4-0.8
		c-0.1-0.3-0.1-0.6-0.1-1c0-0.1,0-0.2,0-0.2s0-0.2,0-0.2c0.1-0.5,0.2-1.1,0.4-1.7c0.2-0.6,0.4-1.2,0.8-1.9c0.3-0.6,0.7-1.2,1.1-1.8
		s0.8-1.1,1.3-1.6c0.5-0.5,1-0.8,1.5-1.1c0.5-0.3,1.1-0.4,1.7-0.4c0.3,0,0.5,0,0.8,0.1c0.2,0.1,0.4,0.2,0.6,0.3l0.1-0.6
		c0.1-0.5,0.2-0.9,0.3-1.3c0.1-0.4,0.2-0.8,0.3-1.2c0.1-0.4,0.1-0.7,0.2-0.9c0-0.3,0.1-0.5,0.1-0.6c0-0.2,0-0.3,0-0.4s0-0.2-0.1-0.3
		c0,0,0-0.1,0-0.1c0,0,0-0.1,0-0.1c0-0.1,0.1-0.2,0.2-0.3c0.1,0,0.2-0.1,0.4-0.1c0.4,0,0.7,0.1,0.9,0.2c0.2,0.1,0.4,0.3,0.5,0.5
		s0.2,0.4,0.2,0.7c0,0.3,0,0.5,0,0.8c0,0.2-0.1,0.5-0.1,0.9c-0.1,0.4-0.2,0.8-0.3,1.3s-0.2,1-0.4,1.6c-0.1,0.6-0.3,1.2-0.4,1.8
		c0,0.2-0.1,0.4-0.2,0.7c-0.1,0.3-0.1,0.6-0.2,0.9c-0.1,0.4-0.2,0.9-0.3,1.4c-0.1,0.5-0.2,1-0.3,1.4s-0.2,0.9-0.2,1.4
		s-0.1,0.8-0.1,1.1c0,0.1,0,0.2,0,0.3s0,0.2,0,0.2c0.1,0.4,0.2,0.6,0.5,0.6c0.1,0,0.3,0,0.4-0.1c0.1-0.1,0.3-0.1,0.4-0.2
		s0.3-0.2,0.4-0.3c0.1-0.1,0.2-0.2,0.3-0.3c0.3-0.3,0.5-0.6,0.8-1c0.2-0.4,0.5-0.7,0.7-1.1c0.2-0.4,0.4-0.8,0.6-1.1s0.4-0.7,0.5-1
		c0.1-0.3,0.3-0.5,0.4-0.7c0.1-0.2,0.2-0.3,0.2-0.4c0,0,0.1,0,0.1-0.1c0,0,0.1,0,0.1,0c0.1,0,0.1,0,0.2,0.1c0.1,0.1,0.1,0.1,0.1,0.2
		c-0.1,0.2-0.2,0.4-0.3,0.6s-0.2,0.4-0.3,0.6c-0.2,0.4-0.4,0.7-0.6,1.1s-0.4,0.8-0.6,1.1s-0.4,0.8-0.6,1.1c-0.2,0.4-0.4,0.7-0.7,1
		c-0.2,0.2-0.4,0.4-0.5,0.6c-0.2,0.2-0.4,0.4-0.6,0.6c-0.2,0.2-0.5,0.3-0.7,0.4C39.4,213.7,39.1,213.8,38.8,213.8z M36.9,207.8
		c0.1-0.5,0.2-1,0.3-1.6s0.2-1.1,0.4-1.6c0-0.1,0-0.2,0.1-0.3c0-0.1,0.1-0.2,0.1-0.3c-0.2-0.1-0.4-0.2-0.7-0.2
		c-0.4,0-0.7,0.1-1.1,0.4c-0.4,0.3-0.7,0.6-1,1.1c-0.3,0.4-0.6,0.9-0.9,1.5c-0.3,0.5-0.5,1.1-0.8,1.6s-0.4,1-0.5,1.5
		c-0.1,0.5-0.2,0.9-0.2,1.1c0,0.1,0,0.3,0,0.5c0,0.2,0,0.3,0.1,0.4c0,0.1,0.1,0.2,0.2,0.3c0.1,0.1,0.2,0.1,0.4,0.1
		c0.2,0,0.5-0.1,0.7-0.2c0.2-0.2,0.5-0.4,0.7-0.6c0.2-0.3,0.5-0.6,0.7-0.9s0.4-0.7,0.6-1s0.4-0.7,0.6-1
		C36.7,208.3,36.8,208,36.9,207.8L36.9,207.8z"/>
	<path class="st0" d="M51.2,209.6c-0.3,0.5-0.6,1-0.9,1.5s-0.7,1-1.1,1.4c-0.4,0.4-0.9,0.8-1.5,1.1c-0.5,0.3-1.2,0.4-1.9,0.4
		c-0.5,0-1-0.1-1.3-0.3c-0.4-0.2-0.7-0.5-0.9-0.9s-0.4-0.8-0.5-1.3c-0.1-0.5-0.1-1-0.1-1.5c0-0.1,0-0.3,0-0.4s0-0.3,0-0.4v0
		c0.1-0.6,0.1-1.1,0.3-1.7c0.2-0.6,0.3-1.1,0.6-1.7c0.2-0.5,0.5-1.1,0.8-1.5s0.7-0.9,1-1.3c0.4-0.4,0.8-0.6,1.2-0.8
		c0.4-0.2,0.9-0.3,1.3-0.3c0.4,0,0.8,0.1,1.2,0.3c0.3,0.2,0.6,0.4,0.9,0.7c0.2,0.3,0.4,0.6,0.5,1c0.1,0.4,0.2,0.8,0.1,1.2
		c-0.1,0.6-0.3,1.1-0.6,1.5c-0.3,0.5-0.8,0.9-1.2,1.2c-0.5,0.4-1,0.7-1.6,0.9s-1.1,0.4-1.6,0.5c0,0.2-0.1,0.3-0.1,0.5
		c0,0.2,0,0.4-0.1,0.6c0,0.1,0,0.2,0,0.2s0,0.2,0,0.2c0,0.2,0,0.4,0.1,0.6c0,0.2,0.1,0.4,0.2,0.6c0.1,0.2,0.2,0.3,0.4,0.4
		c0.2,0.1,0.4,0.2,0.6,0.2c0.4,0,0.7-0.1,1.1-0.4c0.3-0.2,0.7-0.5,1-0.8c0.3-0.3,0.6-0.7,0.8-1.1s0.5-0.7,0.7-1.1v0
		c0.2-0.4,0.5-0.8,0.7-1.2c0.2-0.4,0.4-0.8,0.6-1.1c0.1-0.1,0.2-0.3,0.3-0.5c0.1-0.2,0.2-0.4,0.3-0.5c0.1,0,0.2-0.1,0.2-0.1
		c0.1,0,0.2,0,0.2,0.1c0.1,0.1,0.1,0.1,0.1,0.2l-0.1,0.3c-0.2,0.4-0.4,0.8-0.7,1.3C51.8,208.5,51.5,209.1,51.2,209.6z M50.1,204.2
		c-0.1-0.3-0.3-0.4-0.5-0.4c-0.2,0-0.4,0.1-0.6,0.3c-0.2,0.2-0.4,0.4-0.7,0.7s-0.4,0.6-0.7,1c-0.2,0.4-0.4,0.7-0.6,1.1
		s-0.3,0.7-0.5,1c-0.1,0.3-0.2,0.6-0.3,0.8c0.3,0,0.7-0.2,1.2-0.3c0.4-0.2,0.9-0.4,1.3-0.7c0.4-0.3,0.8-0.6,1.1-1
		c0.3-0.4,0.5-0.8,0.5-1.2C50.3,205,50.2,204.6,50.1,204.2z"/>
	<path class="st0" d="M59.6,200.2c0.2-0.2,0.4-0.3,0.6-0.4c0.2-0.1,0.5-0.1,0.7-0.1c0.2,0,0.3,0,0.5,0.1c0.2,0,0.3,0.1,0.4,0.2
		c0.1,0.1,0.2,0.2,0.3,0.4c0.1,0.1,0.1,0.3,0.1,0.5c0,0.3-0.1,0.7-0.2,1.1c-0.1,0.4-0.3,0.8-0.5,1.3c-0.1,0.2-0.2,0.5-0.3,0.7
		c-0.1,0.2-0.2,0.5-0.3,0.7c0.4,0.6,0.8,1.2,1.1,1.8s0.7,1.2,0.9,1.7s0.5,1.1,0.6,1.5c0.2,0.5,0.2,0.9,0.3,1.2
		c0.2-0.3,0.5-0.7,0.7-1.1c0.2-0.4,0.4-0.7,0.6-1.1c0.2-0.4,0.4-0.7,0.6-1s0.3-0.6,0.4-0.9c0,0,0,0,0,0c0,0,0,0,0,0l0.1-0.2h0
		c0-0.1,0.1-0.2,0.1-0.2c0-0.1,0.1-0.1,0.2-0.1c0.2,0,0.3,0.1,0.4,0.3l-0.1,0.2l0,0c-0.1,0.3-0.3,0.6-0.5,1
		c-0.2,0.4-0.4,0.8-0.6,1.2s-0.5,0.9-0.7,1.3c-0.3,0.4-0.5,0.9-0.8,1.3c-0.3,0.4-0.5,0.8-0.8,1.1c-0.3,0.3-0.6,0.6-0.8,0.8
		c-0.2,0.2-0.5,0.3-0.8,0.4c-0.3,0.1-0.6,0.2-0.9,0.3s-0.6,0.2-0.9,0.2s-0.6,0.1-0.9,0.1c-0.3,0-0.6,0-0.9-0.1
		c-0.3-0.1-0.5-0.1-0.7-0.3s-0.4-0.3-0.5-0.5c-0.1-0.2-0.2-0.4-0.1-0.7c0-0.1,0.1-0.3,0.2-0.4c0.1-0.1,0.3-0.2,0.4-0.2
		c0.1,0,0.2,0.1,0.2,0.2c0,0.1,0,0.2,0,0.3c0,0.2,0,0.3,0.1,0.4c0.1,0.1,0.2,0.2,0.3,0.2s0.3,0.1,0.4,0.1c0.1,0,0.3,0,0.4,0
		c0.8,0,1.4-0.3,1.7-0.8s0.6-1.1,0.6-2c0-0.3,0-0.6-0.1-0.9c-0.1-0.3-0.2-0.7-0.3-1c-0.1-0.4-0.3-0.7-0.4-1.1
		c-0.2-0.4-0.3-0.7-0.5-1l-0.7,1.5l-0.5-0.2l0.8-1.9c-0.4-0.5-0.6-1-0.9-1.6s-0.3-1.2-0.3-1.8c0-0.5,0.1-0.9,0.2-1.4
		C58.9,200.9,59.2,200.5,59.6,200.2z M60.8,203.6c0.1-0.2,0.2-0.5,0.3-0.7s0.2-0.5,0.3-0.8c0.1-0.2,0.1-0.5,0.2-0.7
		c0-0.2,0-0.3,0-0.4h0c-0.1-0.1-0.1-0.2-0.2-0.2c-0.1,0-0.2,0-0.3,0.2s-0.2,0.3-0.3,0.5c-0.1,0.2-0.2,0.5-0.2,0.7
		c-0.1,0.3-0.1,0.5-0.1,0.8c0,0.3,0.1,0.6,0.2,0.9L60.8,203.6z"/>
	<path class="st0" d="M74,209.6c-0.3,0.5-0.6,1-0.9,1.5s-0.7,1-1.1,1.4c-0.4,0.4-0.9,0.8-1.5,1.1c-0.5,0.3-1.2,0.4-1.9,0.4
		c-0.5,0-1-0.1-1.3-0.3c-0.4-0.2-0.7-0.5-0.9-0.9s-0.4-0.8-0.5-1.3c-0.1-0.5-0.1-1-0.1-1.5c0-0.1,0-0.3,0-0.4s0-0.3,0-0.4v0
		c0.1-0.6,0.1-1.1,0.3-1.7c0.2-0.6,0.3-1.1,0.6-1.7c0.2-0.5,0.5-1.1,0.8-1.5s0.7-0.9,1-1.3c0.4-0.4,0.8-0.6,1.2-0.8
		c0.4-0.2,0.9-0.3,1.3-0.3c0.4,0,0.8,0.1,1.2,0.3c0.3,0.2,0.6,0.4,0.9,0.7c0.2,0.3,0.4,0.6,0.5,1c0.1,0.4,0.2,0.8,0.1,1.2
		c-0.1,0.6-0.3,1.1-0.6,1.5c-0.3,0.5-0.8,0.9-1.2,1.2c-0.5,0.4-1,0.7-1.6,0.9s-1.1,0.4-1.6,0.5c0,0.2-0.1,0.3-0.1,0.5
		c0,0.2,0,0.4-0.1,0.6c0,0.1,0,0.2,0,0.2s0,0.2,0,0.2c0,0.2,0,0.4,0.1,0.6c0,0.2,0.1,0.4,0.2,0.6c0.1,0.2,0.2,0.3,0.4,0.4
		c0.2,0.1,0.4,0.2,0.6,0.2c0.4,0,0.7-0.1,1.1-0.4c0.3-0.2,0.7-0.5,1-0.8c0.3-0.3,0.6-0.7,0.8-1.1s0.5-0.7,0.7-1.1v0
		c0.2-0.4,0.5-0.8,0.7-1.2c0.2-0.4,0.4-0.8,0.6-1.1c0.1-0.1,0.2-0.3,0.3-0.5c0.1-0.2,0.2-0.4,0.3-0.5c0.1,0,0.2-0.1,0.2-0.1
		c0.1,0,0.2,0,0.2,0.1c0.1,0.1,0.1,0.1,0.1,0.2l-0.1,0.3c-0.2,0.4-0.4,0.8-0.7,1.3C74.6,208.5,74.3,209.1,74,209.6z M72.8,204.2
		c-0.1-0.3-0.3-0.4-0.5-0.4c-0.2,0-0.4,0.1-0.6,0.3c-0.2,0.2-0.4,0.4-0.7,0.7s-0.4,0.6-0.7,1c-0.2,0.4-0.4,0.7-0.6,1.1
		s-0.3,0.7-0.5,1c-0.1,0.3-0.2,0.6-0.3,0.8c0.3,0,0.7-0.2,1.2-0.3c0.4-0.2,0.9-0.4,1.3-0.7c0.4-0.3,0.8-0.6,1.1-1
		c0.3-0.4,0.5-0.8,0.5-1.2C73.1,205,73,204.6,72.8,204.2z"/>
	<path class="st0" d="M86.4,206.2c0.2-0.1,0.3-0.2,0.4-0.1c0.1,0,0.2,0.1,0.3,0.2c-0.2,0.4-0.5,0.9-0.8,1.3c-0.3,0.5-0.7,1-1.1,1.4
		s-0.8,1-1.3,1.4c-0.5,0.5-1,0.9-1.5,1.3c-0.3,0.2-0.6,0.4-1,0.7c-0.4,0.2-0.7,0.4-1.1,0.6c-0.4,0.2-0.8,0.3-1.2,0.5
		s-0.8,0.2-1.2,0.2c-0.4,0-0.8-0.1-1.1-0.2c-0.4-0.2-0.7-0.4-1-0.7c-0.1,0.4-0.2,0.7-0.2,1.1s-0.1,0.7-0.2,1c-0.1,0.5-0.2,1-0.3,1.5
		c-0.1,0.4-0.2,0.9-0.3,1.3s-0.2,0.9-0.2,1.3c-0.1,0.5-0.1,1-0.2,1.5c0,0.2,0,0.3,0,0.4s0,0.3,0,0.4c0,0.3,0,0.6,0,0.8
		c0,0.2,0,0.4,0.1,0.5c0,0.1,0,0.1,0,0.2c0,0,0,0.1,0,0.1c0,0.1-0.1,0.2-0.1,0.2c-0.1,0-0.1,0-0.2,0c-0.3,0-0.6-0.1-0.9-0.3
		s-0.4-0.5-0.6-0.8s-0.2-0.7-0.3-1.1c-0.1-0.4-0.1-0.8-0.1-1.3c0-0.2,0-0.3,0-0.5s0-0.3,0-0.5c0-0.5,0.1-1,0.2-1.7
		c0.1-0.7,0.2-1.4,0.4-2.2s0.3-1.6,0.5-2.4c0.2-0.8,0.3-1.6,0.5-2.3c0.1-0.6,0.3-1.3,0.4-1.9c0.1-0.6,0.2-1.2,0.3-1.7
		c0.1-0.5,0.2-1,0.3-1.4s0.1-0.8,0.1-1c0-0.2,0-0.4,0-0.6s0-0.3,0-0.5c0-0.1,0-0.2,0-0.2c0-0.1,0-0.1,0-0.2c0-0.2,0.1-0.3,0.2-0.3
		c0.1-0.1,0.2-0.1,0.4-0.1c0.3,0,0.6,0.1,0.8,0.2c0.2,0.1,0.4,0.3,0.5,0.5s0.2,0.4,0.3,0.7c0,0.3,0.1,0.5,0.1,0.8c0,0.1,0,0.2,0,0.3
		c0,0.1,0,0.2,0,0.3c0,0.1,0,0.1,0,0.2c0,0.1,0,0.1,0,0.2c0.2-0.4,0.5-0.8,0.7-1.2c0.3-0.4,0.6-0.8,0.9-1.1s0.6-0.6,1-0.8
		c0.3-0.2,0.7-0.4,1.1-0.5c0.1,0,0.2,0,0.3-0.1c0.1,0,0.2,0,0.3,0c0.4,0,0.7,0.1,0.9,0.2c0.3,0.1,0.5,0.3,0.7,0.5
		c0.2,0.2,0.3,0.5,0.5,0.8c0.1,0.3,0.2,0.6,0.3,0.9c0.1,0.3,0.1,0.7,0.1,1.1c0,0.4,0,0.9-0.1,1.3s-0.1,0.9-0.3,1.4
		c-0.1,0.5-0.3,1-0.4,1.4c-0.2,0.5-0.4,0.9-0.6,1.4c0.7-0.6,1.5-1.3,2.1-2.1C85.4,207.9,86,207.1,86.4,206.2L86.4,206.2z
		 M76.7,208.6c-0.1,0.5-0.2,1-0.3,1.5s-0.2,1-0.3,1.5c0.1,0.2,0.2,0.3,0.4,0.5c0.1,0.1,0.3,0.3,0.5,0.4c0.2,0.1,0.4,0.2,0.6,0.2
		c0.2,0,0.4,0,0.6,0c0.3-0.1,0.6-0.2,0.9-0.5c0.3-0.3,0.5-0.6,0.8-1.1c0.2-0.4,0.4-0.9,0.6-1.4c0.2-0.5,0.3-1,0.4-1.6
		c0.1-0.5,0.2-1,0.3-1.5c0.1-0.5,0.1-0.9,0.1-1.3c0-0.1,0-0.3,0-0.4c0-0.1,0-0.2,0-0.3c0-0.1-0.1-0.3-0.1-0.4c0-0.2-0.1-0.3-0.2-0.4
		c-0.1-0.1-0.2-0.2-0.3-0.3c-0.1-0.1-0.3-0.1-0.5,0c-0.2,0.1-0.5,0.2-0.7,0.4c-0.2,0.2-0.5,0.5-0.7,0.8s-0.4,0.6-0.6,1
		c-0.2,0.4-0.4,0.7-0.5,1.1c-0.2,0.4-0.3,0.7-0.5,1.1C76.9,208.1,76.8,208.4,76.7,208.6z"/>
	<path class="st0" d="M90.3,198.9c0,0.3-0.1,0.5-0.1,0.8c-0.1,0.3-0.1,0.6-0.2,1c0.4,0,0.9,0,1.3,0.1c0.4,0,0.8,0.1,1.1,0.3
		c0.3,0.1,0.7,0.3,0.9,0.6s0.5,0.6,0.7,0.9h0c0,0.1,0,0.2,0,0.3c-0.1,0.1-0.2,0.1-0.3,0.1c-0.4-0.4-0.9-0.7-1.5-0.8
		c-0.6-0.1-1.3-0.2-2-0.2h-0.4c-0.1,0.5-0.2,0.9-0.3,1.3c-0.1,0.5-0.2,0.9-0.4,1.4l-0.3,1.1l0,0.2c-0.1,0.3-0.2,0.6-0.3,1.1
		c-0.1,0.4-0.2,0.9-0.3,1.4s-0.2,1-0.3,1.6c-0.1,0.5-0.1,1-0.1,1.4c0,0.3,0,0.5,0.1,0.8s0.1,0.4,0.2,0.4c0.1,0.1,0.2,0.1,0.4,0
		c0.2-0.1,0.4-0.2,0.7-0.4c0.3-0.3,0.6-0.6,0.9-1c0.3-0.4,0.6-0.8,0.8-1.2c0.3-0.4,0.5-0.9,0.7-1.3c0.2-0.4,0.4-0.8,0.6-1.2h0
		c0.1-0.3,0.3-0.5,0.4-0.7c0.1-0.2,0.2-0.4,0.3-0.5c0,0,0.1,0,0.2,0c0.2,0,0.3,0.1,0.3,0.3l-0.5,1.1h0c-0.3,0.7-0.7,1.4-1,2.1
		c-0.4,0.7-0.8,1.4-1.2,2s-0.9,1.1-1.4,1.5c-0.5,0.4-1,0.6-1.5,0.6c-0.9,0-1.5-0.2-1.9-0.7c-0.4-0.4-0.5-1.1-0.5-1.8
		c0-0.1,0-0.2,0-0.3c0-0.1,0-0.2,0-0.3c0-0.3,0.1-0.8,0.2-1.4c0.1-0.6,0.2-1.2,0.4-1.9s0.3-1.4,0.5-2.2c0.2-0.8,0.4-1.5,0.5-2.2
		l0.2-0.9c-0.3,0-0.7,0.1-1,0.1c-0.3,0-0.6,0-0.9,0c-0.6,0-1.1-0.1-1.6-0.2c-0.5-0.2-0.8-0.4-1-0.8c0,0,0-0.1,0-0.2
		c0-0.1,0-0.1,0-0.2s0.1-0.1,0.1-0.1c0.1,0,0.1,0,0.2,0.1l0,0c0.3,0.1,0.6,0.2,1,0.3s0.7,0.1,1.1,0.1c0.4,0,0.7,0,1.2-0.1
		s0.8-0.1,1.2-0.1c0.1-0.6,0.3-1.2,0.4-1.7c0.1-0.5,0.2-0.8,0.2-1c0-0.2,0-0.3,0-0.4c0-0.1,0-0.2-0.1-0.3c0,0,0-0.1,0-0.1
		c0,0,0-0.1,0-0.1c0-0.1,0.1-0.2,0.2-0.3s0.2-0.1,0.4-0.1c0.4,0,0.7,0.1,0.9,0.2s0.4,0.3,0.5,0.5c0.1,0.2,0.2,0.4,0.2,0.7
		C90.3,198.4,90.3,198.6,90.3,198.9z"/>
	<path class="st0" d="M93.6,203.8c0-0.2,0-0.3,0-0.4c0-0.1,0-0.2,0-0.3c0-0.1,0.1-0.2,0.2-0.2c0.1,0,0.3,0,0.4,0
		c0.4,0.2,0.7,0.3,0.9,0.5c0.2,0.2,0.3,0.4,0.3,0.7c0,0.1,0,0.3-0.1,0.5c0,0.2-0.1,0.4-0.1,0.6c-0.1,0.3-0.2,0.7-0.3,1.2
		c-0.1,0.5-0.2,0.9-0.4,1.4c-0.1,0.5-0.2,1-0.3,1.5c-0.1,0.5-0.2,1-0.2,1.4c0,0.1,0,0.2,0,0.3c0,0.1,0,0.2,0,0.3
		c0,0.3,0,0.6,0.1,0.8c0.1,0.2,0.2,0.3,0.4,0.3c0.1,0,0.3-0.1,0.5-0.3s0.4-0.4,0.6-0.7s0.4-0.6,0.6-1c0.2-0.4,0.4-0.7,0.7-1.1
		c0.2-0.4,0.4-0.8,0.6-1.1c0.2-0.4,0.4-0.7,0.5-1c0.1-0.2,0.2-0.5,0.3-0.6c0.1-0.2,0.2-0.3,0.3-0.5c0.1,0,0.2-0.1,0.2-0.1
		c0.1,0,0.3,0.1,0.4,0.3l-0.2,0.3c-0.2,0.4-0.4,0.9-0.7,1.4s-0.5,1-0.8,1.5c-0.3,0.5-0.6,1-0.9,1.5c-0.3,0.5-0.6,0.9-1,1.3
		c-0.3,0.4-0.6,0.7-1,0.9s-0.6,0.3-0.9,0.3c-0.4,0-0.6-0.1-0.9-0.2c-0.2-0.1-0.4-0.3-0.6-0.6c-0.1-0.2-0.2-0.5-0.3-0.9
		c-0.1-0.3-0.1-0.7-0.1-1.1c0-0.1,0-0.2,0-0.4c0-0.1,0-0.2,0-0.4c0.1-1,0.3-1.9,0.5-2.9c0.3-0.9,0.5-1.9,0.9-2.8L93.6,203.8
		L93.6,203.8z M96.3,199.9c0.1,0.2,0.2,0.4,0.2,0.5s0.1,0.3,0.1,0.5c0,0.3-0.2,0.6-0.4,0.8c-0.3,0.2-0.5,0.3-0.8,0.3
		c-0.2,0-0.5-0.1-0.6-0.3c-0.2-0.2-0.3-0.5-0.2-0.9c0-0.2,0-0.3,0.1-0.5s0.1-0.3,0.2-0.4s0.2-0.2,0.3-0.3c0.1-0.1,0.3-0.1,0.4-0.1
		c0.1,0,0.3,0,0.4,0.1C96,199.6,96.2,199.8,96.3,199.9z"/>
	<path class="st0" d="M105.8,209.6c-0.3,0.5-0.6,1-0.9,1.5s-0.7,1-1.1,1.4c-0.4,0.4-0.9,0.8-1.5,1.1c-0.5,0.3-1.2,0.4-1.9,0.4
		c-0.5,0-1-0.1-1.3-0.3c-0.4-0.2-0.7-0.5-0.9-0.9s-0.4-0.8-0.5-1.3c-0.1-0.5-0.1-1-0.1-1.5c0-0.1,0-0.3,0-0.4s0-0.3,0-0.4v0
		c0.1-0.6,0.1-1.1,0.3-1.7c0.2-0.6,0.3-1.1,0.6-1.7c0.2-0.5,0.5-1.1,0.8-1.5s0.7-0.9,1-1.3c0.4-0.4,0.8-0.6,1.2-0.8
		c0.4-0.2,0.9-0.3,1.3-0.3c0.4,0,0.8,0.1,1.2,0.3c0.3,0.2,0.6,0.4,0.9,0.7c0.2,0.3,0.4,0.6,0.5,1c0.1,0.4,0.2,0.8,0.1,1.2
		c-0.1,0.6-0.3,1.1-0.6,1.5c-0.3,0.5-0.8,0.9-1.2,1.2c-0.5,0.4-1,0.7-1.6,0.9s-1.1,0.4-1.6,0.5c0,0.2-0.1,0.3-0.1,0.5
		c0,0.2,0,0.4-0.1,0.6c0,0.1,0,0.2,0,0.2s0,0.2,0,0.2c0,0.2,0,0.4,0.1,0.6c0,0.2,0.1,0.4,0.2,0.6c0.1,0.2,0.2,0.3,0.4,0.4
		c0.2,0.1,0.4,0.2,0.6,0.2c0.4,0,0.7-0.1,1.1-0.4c0.3-0.2,0.7-0.5,1-0.8c0.3-0.3,0.6-0.7,0.8-1.1s0.5-0.7,0.7-1.1v0
		c0.2-0.4,0.5-0.8,0.7-1.2c0.2-0.4,0.4-0.8,0.6-1.1c0.1-0.1,0.2-0.3,0.3-0.5c0.1-0.2,0.2-0.4,0.3-0.5c0.1,0,0.2-0.1,0.2-0.1
		c0.1,0,0.2,0,0.2,0.1s0.1,0.1,0.1,0.2l-0.1,0.3c-0.2,0.4-0.4,0.8-0.7,1.3C106.4,208.5,106.1,209.1,105.8,209.6z M104.7,204.2
		c-0.1-0.3-0.3-0.4-0.5-0.4c-0.2,0-0.4,0.1-0.6,0.3c-0.2,0.2-0.4,0.4-0.7,0.7s-0.4,0.6-0.7,1c-0.2,0.4-0.4,0.7-0.6,1.1
		s-0.3,0.7-0.5,1c-0.1,0.3-0.2,0.6-0.3,0.8c0.3,0,0.7-0.2,1.2-0.3c0.4-0.2,0.9-0.4,1.3-0.7c0.4-0.3,0.8-0.6,1.1-1
		c0.3-0.4,0.5-0.8,0.5-1.2C104.9,205,104.9,204.6,104.7,204.2z"/>
	<path class="st0" d="M118,203.7c0-0.1,0-0.2-0.1-0.2c0,0,0,0,0,0c0,0,0,0,0,0c-0.2,0-0.5,0.1-0.8,0.4c-0.3,0.3-0.6,0.6-0.9,1.1
		s-0.6,0.9-1,1.4s-0.6,1-0.9,1.5c-0.2,0.3-0.4,0.7-0.6,0.9c-0.2,0.3-0.3,0.5-0.5,0.7l0,0c-0.2,0.5-0.3,0.9-0.4,1.3
		c-0.1,0.4-0.2,0.8-0.2,1.2c0,0.3,0,0.5,0,0.8c0,0.3,0.1,0.5,0.2,0.8c0,0,0,0,0,0.1c0,0,0,0.1,0,0.1c0,0.1-0.1,0.2-0.3,0.2
		c-0.4,0-0.7-0.1-0.9-0.2c-0.2-0.1-0.4-0.3-0.6-0.5c-0.1-0.2-0.3-0.4-0.3-0.7c-0.1-0.3-0.1-0.6-0.1-0.9c0-0.1,0-0.1,0-0.2
		s0-0.2,0-0.2c0-0.4,0.1-0.8,0.2-1.3c0.1-0.5,0.2-0.9,0.4-1.4c0.1-0.5,0.3-0.9,0.5-1.4c0.2-0.4,0.3-0.9,0.5-1.3
		c0.2-0.5,0.4-1,0.5-1.4c0.1-0.4,0.2-0.7,0.3-1c0-0.2,0-0.3-0.1-0.3c-0.2,0-0.4,0.1-0.6,0.3c-0.2,0.2-0.5,0.4-0.7,0.8
		c-0.3,0.3-0.5,0.7-0.8,1.1c-0.3,0.4-0.5,0.8-0.8,1.2c-0.3,0.4-0.5,0.8-0.7,1.1s-0.4,0.6-0.5,0.9v0l-0.3,0.4h0
		c-0.1,0.4-0.3,0.9-0.4,1.4c-0.1,0.5-0.2,1-0.3,1.5c0,0.4,0,0.7,0,0.9c0,0.3,0.1,0.4,0.1,0.6c0,0.1,0,0.2,0,0.2
		c0,0.1-0.2,0.2-0.4,0.2c-0.4,0-0.7-0.1-0.9-0.2c-0.2-0.1-0.4-0.3-0.6-0.6c-0.1-0.2-0.2-0.5-0.3-0.8c-0.1-0.3-0.1-0.6-0.1-0.9
		c0-0.1,0-0.2,0-0.3c0-0.1,0-0.2,0-0.3c0.1-0.7,0.2-1.4,0.3-2.1c0.2-0.7,0.3-1.4,0.5-2c0.1-0.5,0.3-1.1,0.4-1.5
		c0.1-0.5,0.2-0.9,0.2-1.3c0-0.2,0-0.3,0-0.4s0-0.2-0.1-0.3c0,0,0-0.1,0-0.1s0-0.1,0-0.1c0-0.1,0.1-0.2,0.2-0.3
		c0.1,0,0.2-0.1,0.4-0.1c0.4,0,0.7,0.1,0.9,0.2c0.2,0.1,0.4,0.3,0.5,0.5c0.1,0.2,0.2,0.4,0.2,0.7s0,0.5,0,0.7c0,0.3-0.1,0.5-0.1,0.8
		c-0.1,0.3-0.1,0.5-0.2,0.8c0,0.2-0.1,0.3-0.1,0.3c0,0.1,0,0.2-0.1,0.3c0.1-0.2,0.3-0.4,0.4-0.6s0.3-0.4,0.4-0.6
		c0.3-0.4,0.5-0.8,0.8-1.3c0.3-0.4,0.6-0.8,0.9-1.1c0.3-0.3,0.6-0.6,1-0.8c0.3-0.2,0.7-0.3,1.1-0.3c0.3,0,0.5,0.1,0.7,0.2
		c0.2,0.1,0.3,0.2,0.4,0.4c0.1,0.2,0.2,0.4,0.2,0.6c0,0.2,0,0.5,0,0.7c0,0.3-0.1,0.7-0.2,1.1c-0.1,0.4-0.2,0.8-0.4,1.2
		c0-0.1,0.1-0.2,0.1-0.2c0-0.1,0.1-0.1,0.1-0.2c0.3-0.4,0.6-0.9,0.9-1.3c0.3-0.4,0.6-0.8,0.9-1.2c0.3-0.4,0.7-0.6,1-0.9
		c0.4-0.2,0.7-0.3,1.2-0.3c0.3,0,0.5,0,0.7,0.1s0.3,0.2,0.4,0.4s0.2,0.4,0.2,0.6c0,0.2,0,0.5,0,0.7c0,0.6-0.2,1.2-0.4,1.9
		s-0.4,1.4-0.7,2.1c-0.2,0.7-0.4,1.3-0.6,1.9c-0.2,0.6-0.3,1.1-0.3,1.6c0,0.1,0,0.2,0,0.3s0,0.3,0,0.4s0.1,0.2,0.1,0.3
		s0.1,0.1,0.2,0.1c0.2,0,0.3-0.1,0.6-0.4c0.2-0.2,0.5-0.6,0.7-0.9s0.5-0.8,0.8-1.3c0.3-0.5,0.5-0.9,0.8-1.3c0.2-0.4,0.5-0.8,0.6-1.2
		c0.2-0.3,0.3-0.6,0.4-0.7c0,0,0-0.1,0-0.1l0-0.1h0c0.1-0.1,0.1-0.2,0.1-0.2c0-0.1,0.1-0.1,0.2-0.1c0.1,0,0.2,0,0.2,0.1
		c0.1,0.1,0.1,0.1,0.1,0.2l-0.4,0.9c-0.2,0.4-0.4,0.8-0.7,1.3s-0.5,0.9-0.8,1.4c-0.3,0.5-0.6,0.9-0.8,1.4c-0.3,0.4-0.6,0.8-0.9,1.2
		c-0.3,0.3-0.6,0.6-0.9,0.8c-0.3,0.2-0.6,0.3-0.9,0.3c-0.7,0-1.2-0.2-1.4-0.6c-0.3-0.4-0.4-0.9-0.4-1.4c0-0.1,0-0.1,0-0.2
		s0-0.2,0-0.2c0-0.4,0.1-0.8,0.2-1.3c0.1-0.4,0.2-0.9,0.4-1.3c0.1-0.5,0.3-0.9,0.5-1.4c0.2-0.4,0.3-0.9,0.5-1.3
		c0.2-0.5,0.4-1,0.5-1.4S118,203.9,118,203.7z"/>
	<path class="st0" d="M132.9,206.2c0.1-0.1,0.2-0.2,0.3-0.1c0.1,0,0.2,0.1,0.3,0.3c-0.2,0.5-0.5,1.1-1,1.8s-1,1.3-1.5,2
		c-0.6,0.7-1.3,1.3-2,1.9c-0.7,0.6-1.5,1.1-2.3,1.5c-0.4,0.2-0.9,0.4-1.4,0.5c-0.5,0.2-1,0.2-1.5,0.2c-0.3,0-0.5,0-0.7-0.1
		c-0.6-0.2-1-0.5-1.4-1c-0.3-0.5-0.5-1.1-0.5-1.9c0-0.4,0.1-1,0.2-1.6c0.1-0.6,0.2-1.4,0.4-2.1c0.2-0.8,0.3-1.5,0.5-2.3
		c0.2-0.8,0.4-1.6,0.6-2.4c0.1-0.5,0.2-1,0.4-1.5s0.2-0.9,0.3-1.3s0.2-0.8,0.2-1.1c0.1-0.3,0.1-0.6,0.1-0.8c0-0.2,0-0.3,0-0.4
		c0-0.1,0-0.2-0.1-0.3c0,0,0-0.1,0-0.1c0,0,0-0.1,0-0.1c0-0.1,0.1-0.2,0.2-0.3c0.1,0,0.2-0.1,0.4-0.1c0.4,0,0.7,0.1,0.9,0.2
		c0.2,0.1,0.4,0.3,0.5,0.5s0.2,0.4,0.2,0.7s0,0.5,0,0.8c0,0.4-0.1,0.9-0.2,1.4s-0.2,1-0.3,1.6c-0.1,0.5-0.3,1.1-0.4,1.7
		c-0.1,0.6-0.3,1.1-0.4,1.7c0,0.1,0,0.1,0,0.2c0,0,0,0.1,0,0.1s0,0.1,0,0.1c0,0,0,0.1,0,0.2c0.3-0.4,0.5-0.8,0.8-1.1
		s0.6-0.7,0.9-0.9c0.3-0.3,0.7-0.5,1-0.6c0.4-0.2,0.7-0.2,1.1-0.2c0.4,0,0.7,0.1,1,0.2c0.3,0.1,0.5,0.3,0.7,0.5
		c0.2,0.2,0.3,0.5,0.4,0.8c0.1,0.3,0.1,0.6,0.1,1c0,0.1,0,0.2,0,0.2s0,0.2,0,0.2c0,0.4-0.1,0.9-0.3,1.4c-0.1,0.5-0.3,1-0.6,1.6
		c-0.2,0.5-0.5,1.1-0.8,1.6c-0.3,0.5-0.6,1-1,1.5c0.5-0.3,0.9-0.7,1.4-1.1c0.5-0.4,0.9-0.9,1.3-1.4c0.4-0.5,0.8-1,1.2-1.5
		C132.3,207.3,132.6,206.7,132.9,206.2L132.9,206.2z M127.4,204.3c-0.3,0-0.6,0.1-0.9,0.4c-0.3,0.3-0.6,0.6-0.9,1
		c-0.3,0.4-0.6,0.8-0.8,1.2c-0.3,0.4-0.5,0.8-0.7,1.2l0,0l-0.1,0.4c-0.1,0.2-0.1,0.5-0.2,0.8c-0.1,0.3-0.1,0.6-0.2,0.9
		c-0.1,0.3-0.1,0.6-0.2,0.9c0,0.3-0.1,0.6-0.1,0.8c0,0.3,0,0.5,0.1,0.7c0.1,0.2,0.2,0.3,0.3,0.3c0.1,0,0.3,0,0.4-0.1
		c0.3-0.2,0.6-0.4,0.9-0.8c0.3-0.3,0.6-0.7,0.9-1.2s0.5-0.9,0.8-1.4c0.2-0.5,0.5-1,0.6-1.4c0.2-0.5,0.3-0.9,0.4-1.3
		c0.1-0.4,0.2-0.7,0.2-1c0-0.1,0-0.3,0-0.5s0-0.3-0.1-0.4c0-0.1-0.1-0.2-0.2-0.3C127.7,204.4,127.6,204.3,127.4,204.3z"/>
	<path class="st0" d="M132.2,207.6l1-2.1c-0.3,0-0.6-0.1-0.9-0.3c-0.2-0.2-0.4-0.3-0.6-0.6c-0.2-0.2-0.3-0.5-0.3-0.8
		c-0.1-0.3-0.1-0.6-0.1-0.9c0-0.3,0.1-0.7,0.3-1c0.1-0.3,0.3-0.7,0.6-0.9c0.2-0.3,0.5-0.5,0.8-0.7c0.3-0.2,0.6-0.3,1-0.3
		c0.5,0,0.8,0.1,1,0.4c0.2,0.3,0.3,0.7,0.2,1.2c0,0.3-0.1,0.6-0.2,0.9c-0.1,0.3-0.2,0.6-0.3,0.9c-0.1,0.3-0.2,0.5-0.3,0.7
		s-0.1,0.4-0.2,0.5c0.2,0.1,0.5,0.1,0.7,0.1c0.2,0,0.4,0,0.6,0c0.2,0,0.4,0,0.6,0s0.3,0,0.4,0.1c0.1,0.1,0.2,0.2,0.2,0.3
		c0,0.1,0.1,0.3,0,0.6c0,0.2-0.1,0.3-0.1,0.5l-0.1,0.6c-0.1,0.4-0.2,0.7-0.3,1.1c-0.1,0.4-0.2,0.8-0.3,1.2c-0.1,0.4-0.2,0.8-0.2,1.1
		c-0.1,0.4-0.1,0.7-0.1,0.9c0,0.3,0,0.6,0.1,0.8c0.1,0.2,0.2,0.3,0.3,0.4c0.2-0.1,0.4-0.2,0.6-0.5c0.2-0.2,0.5-0.5,0.7-0.9
		c0.2-0.3,0.5-0.7,0.8-1.1c0.3-0.4,0.5-0.8,0.7-1.2s0.5-0.8,0.7-1.2c0.2-0.4,0.4-0.7,0.5-1l0-0.1h0c0-0.1,0.1-0.2,0.1-0.2
		c0-0.1,0.1-0.1,0.2-0.1c0.1,0,0.3,0.1,0.4,0.3l-0.2,0.3c-0.1,0.3-0.3,0.6-0.5,1c-0.2,0.4-0.4,0.8-0.6,1.2s-0.4,0.8-0.7,1.2
		c-0.2,0.4-0.5,0.8-0.7,1.2c-0.2,0.4-0.5,0.7-0.8,1c-0.3,0.3-0.5,0.6-0.7,0.8c-0.2,0.2-0.4,0.3-0.7,0.4c-0.3,0.1-0.6,0.2-0.8,0.2
		c-0.3,0-0.5-0.1-0.7-0.2s-0.3-0.3-0.4-0.6s-0.2-0.5-0.2-0.8c0-0.3-0.1-0.7-0.1-1c0-0.1,0-0.2,0-0.3c0-0.1,0-0.2,0-0.3
		c0-0.3,0.1-0.6,0.2-1c0.1-0.4,0.2-0.9,0.3-1.3c0.1-0.5,0.2-0.9,0.3-1.3c0.1-0.4,0.2-0.8,0.3-1l-1,0c-0.2,0.3-0.3,0.7-0.5,1.1
		c-0.2,0.4-0.4,0.7-0.5,1L132.2,207.6z M133.2,203.8c0,0.2,0,0.4,0.1,0.5s0.2,0.2,0.4,0.3c0-0.1,0.1-0.2,0.2-0.4
		c0.1-0.2,0.2-0.4,0.3-0.7c0.1-0.2,0.2-0.5,0.2-0.7c0.1-0.3,0.1-0.5,0.1-0.7c0-0.2,0-0.3,0-0.3c-0.1,0-0.2,0.1-0.3,0.2
		c-0.1,0.1-0.3,0.3-0.4,0.5c-0.1,0.2-0.2,0.4-0.3,0.7S133.2,203.6,133.2,203.8z"/>
	<path class="st0" d="M147.5,209.6c-0.3,0.5-0.6,1-0.9,1.5s-0.7,1-1.1,1.4c-0.4,0.4-0.9,0.8-1.5,1.1c-0.5,0.3-1.2,0.4-1.9,0.4
		c-0.5,0-1-0.1-1.3-0.3s-0.7-0.5-0.9-0.9c-0.2-0.4-0.4-0.8-0.5-1.3c-0.1-0.5-0.2-1-0.2-1.5c0-0.1,0-0.3,0-0.4s0-0.3,0-0.4v0
		c0-0.6,0.1-1.1,0.3-1.7s0.3-1.1,0.6-1.7c0.2-0.5,0.5-1.1,0.8-1.5c0.3-0.5,0.7-0.9,1-1.3c0.4-0.4,0.8-0.6,1.2-0.8
		c0.4-0.2,0.9-0.3,1.3-0.3c0.4,0,0.8,0.1,1.2,0.3c0.3,0.2,0.6,0.4,0.9,0.7c0.2,0.3,0.4,0.6,0.5,1c0.1,0.4,0.2,0.8,0.1,1.2
		c-0.1,0.6-0.3,1.1-0.6,1.5c-0.3,0.5-0.8,0.9-1.2,1.2c-0.5,0.4-1,0.7-1.6,0.9c-0.6,0.2-1.1,0.4-1.6,0.5c0,0.2-0.1,0.3-0.1,0.5
		c0,0.2,0,0.4-0.1,0.6c0,0.1,0,0.2,0,0.2s0,0.2,0,0.2c0,0.2,0,0.4,0.1,0.6c0,0.2,0.1,0.4,0.2,0.6s0.2,0.3,0.4,0.4
		c0.2,0.1,0.4,0.2,0.6,0.2c0.4,0,0.7-0.1,1.1-0.4c0.3-0.2,0.7-0.5,1-0.8c0.3-0.3,0.6-0.7,0.8-1.1s0.5-0.7,0.7-1.1v0
		c0.2-0.4,0.5-0.8,0.7-1.2c0.2-0.4,0.4-0.8,0.6-1.1c0.1-0.1,0.2-0.3,0.3-0.5c0.1-0.2,0.2-0.4,0.3-0.5c0.1,0,0.2-0.1,0.2-0.1
		c0.1,0,0.2,0,0.2,0.1c0.1,0.1,0.1,0.1,0.1,0.2l-0.2,0.3c-0.2,0.4-0.4,0.8-0.7,1.3C148.1,208.5,147.8,209.1,147.5,209.6z
		 M146.3,204.2c-0.1-0.3-0.3-0.4-0.5-0.4c-0.2,0-0.4,0.1-0.6,0.3c-0.2,0.2-0.5,0.4-0.7,0.7c-0.2,0.3-0.4,0.6-0.7,1s-0.4,0.7-0.6,1.1
		s-0.3,0.7-0.5,1c-0.1,0.3-0.2,0.6-0.3,0.8c0.3,0,0.7-0.2,1.2-0.3c0.4-0.2,0.9-0.4,1.3-0.7s0.8-0.6,1.1-1c0.3-0.4,0.5-0.8,0.5-1.2
		C146.6,205,146.5,204.6,146.3,204.2z"/>
	<path class="st0" d="M163.1,213.8c-0.9,0-1.5-0.2-1.9-0.7s-0.5-1.1-0.5-1.9c0-0.1,0-0.2,0-0.3c0-0.1,0-0.2,0-0.3c0-0.1,0-0.1,0-0.2
		s0-0.1,0-0.1s0-0.1,0-0.1s0-0.1,0-0.2c-0.3,0.5-0.6,0.9-0.9,1.4c-0.3,0.5-0.7,0.9-1.1,1.2c-0.4,0.4-0.8,0.6-1.2,0.9
		c-0.4,0.2-0.8,0.3-1.3,0.3c-0.4,0-0.7-0.1-1-0.2c-0.3-0.1-0.5-0.3-0.7-0.5c-0.2-0.2-0.3-0.5-0.4-0.8c-0.1-0.3-0.1-0.6-0.1-1
		c0-0.1,0-0.2,0-0.2s0-0.2,0-0.2c0.1-0.5,0.2-1.1,0.4-1.7c0.2-0.6,0.4-1.2,0.8-1.9c0.3-0.6,0.7-1.2,1.1-1.8c0.4-0.6,0.8-1.1,1.3-1.6
		s1-0.8,1.5-1.1c0.5-0.3,1.1-0.4,1.7-0.4c0.3,0,0.5,0,0.8,0.1c0.2,0.1,0.4,0.2,0.6,0.3l0.2-0.6c0.1-0.5,0.2-0.9,0.3-1.3
		s0.2-0.8,0.3-1.2c0.1-0.4,0.1-0.7,0.2-0.9c0-0.3,0.1-0.5,0.1-0.6c0-0.2,0-0.3,0-0.4c0-0.1,0-0.2-0.1-0.3c0,0,0-0.1,0-0.1
		s0-0.1,0-0.1c0-0.1,0.1-0.2,0.2-0.3s0.2-0.1,0.4-0.1c0.4,0,0.7,0.1,0.9,0.2c0.2,0.1,0.4,0.3,0.5,0.5s0.2,0.4,0.2,0.7
		c0,0.3,0,0.5,0,0.8c0,0.2-0.1,0.5-0.1,0.9c-0.1,0.4-0.2,0.8-0.3,1.3c-0.1,0.5-0.2,1-0.4,1.6c-0.1,0.6-0.3,1.2-0.4,1.8
		c0,0.2-0.1,0.4-0.2,0.7c-0.1,0.3-0.1,0.6-0.2,0.9c-0.1,0.4-0.2,0.9-0.3,1.4c-0.1,0.5-0.2,1-0.3,1.4c-0.1,0.5-0.2,0.9-0.2,1.4
		c-0.1,0.4-0.1,0.8-0.1,1.1c0,0.1,0,0.2,0,0.3s0,0.2,0,0.2c0.1,0.4,0.2,0.6,0.5,0.6c0.1,0,0.3,0,0.4-0.1c0.1-0.1,0.3-0.1,0.4-0.2
		c0.1-0.1,0.3-0.2,0.4-0.3c0.1-0.1,0.2-0.2,0.3-0.3c0.3-0.3,0.5-0.6,0.8-1s0.5-0.7,0.7-1.1c0.2-0.4,0.4-0.8,0.6-1.1
		c0.2-0.4,0.4-0.7,0.5-1c0.1-0.3,0.3-0.5,0.4-0.7c0.1-0.2,0.2-0.3,0.2-0.4c0,0,0.1,0,0.1-0.1c0,0,0.1,0,0.1,0c0.1,0,0.1,0,0.2,0.1
		c0.1,0.1,0.1,0.1,0.1,0.2c-0.1,0.2-0.2,0.4-0.3,0.6c-0.1,0.2-0.2,0.4-0.3,0.6c-0.2,0.4-0.4,0.7-0.6,1.1c-0.2,0.4-0.4,0.8-0.6,1.1
		s-0.4,0.8-0.6,1.1c-0.2,0.4-0.4,0.7-0.7,1c-0.2,0.2-0.4,0.4-0.5,0.6c-0.2,0.2-0.4,0.4-0.6,0.6s-0.5,0.3-0.7,0.4
		C163.7,213.7,163.4,213.8,163.1,213.8z M161.2,207.8c0.1-0.5,0.2-1,0.3-1.6s0.2-1.1,0.4-1.6c0-0.1,0-0.2,0.1-0.3
		c0-0.1,0.1-0.2,0.1-0.3c-0.2-0.1-0.4-0.2-0.7-0.2c-0.4,0-0.7,0.1-1.1,0.4c-0.4,0.3-0.7,0.6-1,1.1c-0.3,0.4-0.6,0.9-0.9,1.5
		c-0.3,0.5-0.5,1.1-0.8,1.6c-0.2,0.5-0.4,1-0.5,1.5c-0.1,0.5-0.2,0.9-0.2,1.1c0,0.1,0,0.3,0,0.5c0,0.2,0,0.3,0.1,0.4
		c0,0.1,0.1,0.2,0.2,0.3c0.1,0.1,0.2,0.1,0.4,0.1c0.2,0,0.5-0.1,0.7-0.2c0.2-0.2,0.5-0.4,0.7-0.6c0.2-0.3,0.5-0.6,0.7-0.9
		c0.2-0.3,0.4-0.7,0.6-1s0.4-0.7,0.6-1C161,208.3,161.1,208,161.2,207.8L161.2,207.8z"/>
	<path class="st0" d="M175.5,209.6c-0.3,0.5-0.6,1-0.9,1.5s-0.7,1-1.1,1.4s-0.9,0.8-1.5,1.1c-0.5,0.3-1.2,0.4-1.9,0.4
		c-0.5,0-1-0.1-1.3-0.3c-0.4-0.2-0.7-0.5-0.9-0.9c-0.2-0.4-0.4-0.8-0.5-1.3s-0.1-1-0.1-1.5c0-0.1,0-0.3,0-0.4s0-0.3,0-0.4v0
		c0.1-0.6,0.2-1.1,0.3-1.7c0.2-0.6,0.3-1.1,0.6-1.7c0.2-0.5,0.5-1.1,0.8-1.5c0.3-0.5,0.7-0.9,1-1.3c0.4-0.4,0.8-0.6,1.2-0.8
		c0.4-0.2,0.9-0.3,1.3-0.3c0.4,0,0.8,0.1,1.2,0.3c0.3,0.2,0.6,0.4,0.9,0.7c0.2,0.3,0.4,0.6,0.5,1c0.1,0.4,0.2,0.8,0.1,1.2
		c-0.1,0.6-0.3,1.1-0.6,1.5c-0.3,0.5-0.8,0.9-1.2,1.2c-0.5,0.4-1,0.7-1.6,0.9c-0.6,0.2-1.1,0.4-1.6,0.5c0,0.2-0.1,0.3-0.1,0.5
		s0,0.4-0.1,0.6c0,0.1,0,0.2,0,0.2s0,0.2,0,0.2c0,0.2,0,0.4,0.1,0.6c0,0.2,0.1,0.4,0.2,0.6c0.1,0.2,0.2,0.3,0.4,0.4
		c0.2,0.1,0.4,0.2,0.6,0.2c0.4,0,0.7-0.1,1.1-0.4c0.3-0.2,0.7-0.5,1-0.8s0.6-0.7,0.8-1.1s0.5-0.7,0.7-1.1v0c0.2-0.4,0.5-0.8,0.7-1.2
		c0.2-0.4,0.4-0.8,0.6-1.1c0.1-0.1,0.2-0.3,0.3-0.5c0.1-0.2,0.2-0.4,0.3-0.5c0.1,0,0.2-0.1,0.2-0.1c0.1,0,0.2,0,0.2,0.1
		s0.1,0.1,0.1,0.2l-0.1,0.3c-0.2,0.4-0.4,0.8-0.7,1.3C176.1,208.5,175.8,209.1,175.5,209.6z M174.3,204.2c-0.2-0.3-0.3-0.4-0.5-0.4
		c-0.2,0-0.4,0.1-0.6,0.3c-0.2,0.2-0.4,0.4-0.7,0.7c-0.2,0.3-0.4,0.6-0.7,1c-0.2,0.4-0.4,0.7-0.6,1.1s-0.3,0.7-0.5,1
		c-0.1,0.3-0.2,0.6-0.3,0.8c0.3,0,0.7-0.2,1.2-0.3s0.9-0.4,1.3-0.7c0.4-0.3,0.8-0.6,1.1-1s0.5-0.8,0.5-1.2
		C174.6,205,174.5,204.6,174.3,204.2z"/>
	<path class="st0" d="M184,213.5c-0.1,0-0.2,0-0.2,0c-0.1,0-0.1,0-0.2,0c-0.2,0-0.4,0-0.5,0c-0.2,0-0.2-0.2-0.3-0.4v0
		c0-0.1,0-0.3,0-0.4c0-0.1,0.1-0.2,0.1-0.4l0.3-0.5l0,0v0c0.2-0.3,0.5-0.6,0.8-1s0.6-0.7,1-1.1c0.4-0.4,0.8-0.9,1.3-1.4
		s0.9-1,1.4-1.5c0.4-0.5,0.9-1.1,1.3-1.6s0.8-1.1,1.1-1.6c0.3-0.5,0.6-1,0.8-1.5s0.3-1,0.4-1.4c0-0.2,0-0.3,0-0.5
		c0-0.1,0-0.3-0.1-0.4c-0.1-0.1-0.1-0.2-0.2-0.3c-0.1-0.1-0.3-0.2-0.5-0.2c-0.3,0-0.7,0-1.1,0.1c-0.4,0.1-0.8,0.3-1.2,0.5
		c-0.4,0.2-0.8,0.5-1.2,0.8c-0.4,0.3-0.7,0.7-1.1,1s-0.6,0.7-0.8,1.1c-0.2,0.4-0.3,0.8-0.3,1.2v0c0,0.2,0,0.3,0,0.3
		c0,0.1-0.1,0.1-0.1,0.1c-0.1,0-0.1,0-0.2,0c-0.1,0-0.1-0.1-0.2-0.1c-0.2-0.2-0.3-0.4-0.4-0.7c-0.1-0.3-0.1-0.5-0.1-0.8
		c0-0.3,0.1-0.7,0.2-1c0.1-0.4,0.3-0.7,0.5-1.1c0.2-0.3,0.4-0.7,0.6-1s0.4-0.6,0.6-0.8c0.6-0.6,1.3-1.1,1.9-1.4
		c0.6-0.3,1.3-0.5,1.8-0.5c0.5,0,0.9,0.1,1.3,0.3c0.4,0.2,0.7,0.5,1,0.8c0.3,0.4,0.5,0.8,0.6,1.3c0.1,0.5,0.2,1.1,0.1,1.8
		c0,0.2-0.1,0.5-0.1,0.8c0,0.3-0.1,0.5-0.2,0.8c-0.2,0.8-0.5,1.5-0.9,2.3c-0.4,0.7-0.8,1.5-1.3,2.1c-0.5,0.7-1,1.3-1.4,1.9
		c-0.5,0.6-1,1.1-1.4,1.6l-0.5,0.5l1.5,0.1l1.2,0.1c0.3,0,0.6,0,0.9,0c0.3,0,0.6-0.1,1-0.2c0.2,0,0.4-0.1,0.6-0.2
		c0.2-0.1,0.3-0.1,0.4-0.2c0.1-0.1,0.1-0.1,0.2-0.1l0,0c0.1,0,0.2,0.1,0.1,0.3c0,0.4-0.1,0.7-0.2,1c-0.1,0.3-0.3,0.5-0.5,0.7
		c-0.2,0.2-0.4,0.4-0.7,0.5s-0.5,0.2-0.7,0.3c-0.2,0-0.4,0.1-0.7,0.1c-0.2,0-0.5,0-0.8,0c-0.4,0-0.8,0-1.3,0c-0.5,0-0.9-0.1-1.4-0.1
		c-0.4,0-0.8-0.1-1.2-0.1C184.7,213.5,184.4,213.5,184,213.5z"/>
	<path class="st0" d="M199.7,196.9c0.8,0,1.4,0.1,1.9,0.3c0.5,0.2,0.9,0.5,1.3,0.9s0.6,0.8,0.7,1.3s0.3,1,0.3,1.6
		c0.1,0.6,0.1,1.1,0.1,1.7c0,0.6-0.1,1.2-0.1,1.7c0,0.6-0.1,1.2-0.3,1.9s-0.4,1.4-0.6,2s-0.6,1.3-0.9,2c-0.4,0.6-0.8,1.2-1.3,1.7
		c-0.5,0.5-1,0.9-1.6,1.1c-0.6,0.3-1.3,0.4-2,0.4c-0.7,0-1.2-0.1-1.7-0.4c-0.5-0.3-0.9-0.6-1.2-1c-0.3-0.4-0.6-0.9-0.8-1.4
		c-0.2-0.5-0.3-1.1-0.4-1.7s-0.1-1.2-0.1-1.7s0-1.1,0.1-1.6c0-0.5,0.2-1.1,0.3-1.8c0.2-0.6,0.4-1.3,0.7-1.9c0.3-0.7,0.6-1.3,1-1.9
		c0.4-0.6,0.8-1.1,1.3-1.6c0.5-0.5,1-0.8,1.6-1.1C198.4,197.1,199,196.9,199.7,196.9z M199.8,197.8c-0.4,0-0.7,0.2-1,0.6
		c-0.3,0.4-0.6,0.9-0.9,1.5c-0.3,0.6-0.5,1.3-0.7,2c-0.2,0.7-0.4,1.4-0.6,2.1s-0.3,1.3-0.4,1.9c-0.1,0.6-0.2,1-0.2,1.3
		c0,0.2,0,0.5-0.1,0.9c0,0.4,0,0.7,0,1.1c0,0.4,0,0.8,0.1,1.2s0.1,0.8,0.2,1.1c0.1,0.3,0.3,0.6,0.5,0.8c0.2,0.2,0.5,0.3,0.8,0.3
		c0.3,0,0.7-0.1,1-0.4c0.3-0.3,0.6-0.6,0.9-1.1c0.3-0.5,0.5-1,0.8-1.6c0.2-0.6,0.5-1.3,0.6-2c0.2-0.7,0.3-1.4,0.5-2.1
		c0.1-0.7,0.2-1.4,0.3-2.1c0.1-0.8,0.1-1.5,0-2.2c0-0.7-0.1-1.2-0.3-1.7c-0.1-0.5-0.3-0.9-0.6-1.1
		C200.5,198,200.1,197.8,199.8,197.8z"/>
	<path class="st0" d="M209.5,208.2c-0.1,0.3-0.1,0.5-0.2,0.8c0,0.3-0.1,0.5-0.1,0.8c0,0.3-0.1,0.5-0.1,0.8c0,0.3-0.1,0.6-0.1,0.9
		c0,0.4,0,0.7,0,1c0,0.3,0.1,0.5,0.1,0.6c0,0.1,0,0.1,0,0.2c0,0,0,0.1,0,0.1c0,0.1,0,0.1-0.1,0.1c-0.1,0-0.1,0-0.2,0
		c-0.4-0.1-0.7-0.2-0.9-0.4c-0.2-0.2-0.4-0.5-0.6-0.9c-0.1-0.3-0.2-0.7-0.3-1.1c0-0.4,0-0.8,0-1.2c0-0.4,0.1-0.8,0.2-1.3
		c0.1-0.5,0.2-1,0.3-1.6s0.3-1.2,0.4-1.8c0.2-0.6,0.3-1.2,0.5-1.9c0.2-0.7,0.3-1.3,0.4-1.8c0.1-0.5,0.2-1,0.3-1.5
		c-0.3,0.4-0.6,0.8-0.9,1.2c-0.3,0.4-0.5,0.7-0.8,0.9c-0.1,0.1-0.3,0.3-0.5,0.4c-0.2,0.1-0.3,0.3-0.5,0.4s-0.3,0.2-0.5,0.3
		s-0.3,0.1-0.5,0.1c-0.3,0-0.5-0.1-0.6-0.3v0c0,0,0,0,0-0.1c0-0.1,0-0.1,0-0.2v0c0,0,0,0,0.1,0c0.1,0,0.1-0.1,0.2-0.1
		c0.1-0.1,0.2-0.2,0.4-0.3c0.2-0.1,0.3-0.3,0.5-0.4c0.3-0.3,0.6-0.7,0.9-1c0.3-0.3,0.5-0.6,0.8-0.9l1.8-2.6c0-0.1,0.1-0.2,0.2-0.2
		s0.2,0,0.3,0c0.4,0,0.7,0.1,0.9,0.3c0.2,0.2,0.4,0.4,0.5,0.6c0.1,0.3,0.2,0.5,0.2,0.9c0,0.3,0,0.7,0,1c0,0.3-0.1,0.5-0.1,0.8
		s-0.1,0.6-0.2,0.8c-0.1,0.3-0.1,0.5-0.2,0.7c-0.1,0.2-0.1,0.4-0.1,0.6l-0.6,2.5c-0.1,0.5-0.3,1-0.4,1.5S209.6,207.7,209.5,208.2z"
		/>
	<path class="st0" d="M218,196.8c0.6,0,1.2,0.1,1.6,0.2c0.5,0.2,0.9,0.4,1.2,0.7c0.3,0.3,0.5,0.7,0.7,1.1c0.1,0.4,0.2,0.9,0.2,1.4
		c0,0.4-0.1,0.9-0.3,1.3c-0.2,0.4-0.4,0.9-0.6,1.3s-0.6,0.8-0.9,1.1c-0.4,0.3-0.8,0.6-1.3,0.9c0.4,0.1,0.8,0.3,1.1,0.5
		c0.3,0.2,0.6,0.5,0.8,0.8c0.2,0.3,0.3,0.6,0.4,1s0.1,0.8,0.1,1.2c0,0.7-0.2,1.3-0.5,2c-0.3,0.7-0.7,1.3-1.2,1.8
		c-0.5,0.5-1.1,1-1.8,1.3s-1.5,0.5-2.3,0.6c-0.7,0-1.3-0.1-1.8-0.2c-0.5-0.2-1-0.5-1.3-0.8c-0.4-0.3-0.6-0.8-0.8-1.2s-0.2-1-0.2-1.5
		c0-0.5,0.1-0.9,0.3-1.4c0.2-0.5,0.4-0.9,0.7-1.4s0.7-0.8,1.1-1.2c0.4-0.4,0.9-0.6,1.4-0.8c-0.6-0.2-1.1-0.5-1.4-0.9
		s-0.6-0.8-0.7-1.3c-0.1-0.5-0.1-0.9-0.1-1.4c0.1-0.5,0.2-1,0.5-1.5c0.2-0.5,0.5-1,0.9-1.4c0.4-0.4,0.8-0.8,1.2-1.1s0.9-0.6,1.4-0.8
		C216.9,196.8,217.5,196.7,218,196.8z M216.5,206L216.5,206c-0.4,0.1-0.7,0.2-1,0.5c-0.3,0.3-0.5,0.6-0.7,1
		c-0.2,0.4-0.4,0.8-0.5,1.2c-0.1,0.5-0.2,0.9-0.2,1.3c0,0.3,0,0.7,0.1,1s0.2,0.6,0.4,0.8c0.2,0.2,0.4,0.4,0.6,0.6
		c0.2,0.1,0.5,0.2,0.8,0.2c0.5,0,1-0.2,1.4-0.4c0.4-0.2,0.7-0.6,1-0.9c0.3-0.4,0.5-0.8,0.7-1.2c0.2-0.4,0.3-0.8,0.3-1.3
		c0-0.4,0-0.7-0.1-1.1c-0.1-0.3-0.2-0.6-0.4-0.9s-0.4-0.5-0.7-0.6c-0.3-0.1-0.7-0.2-1.1-0.2C216.8,206,216.6,206,216.5,206z
		 M217.7,198c-0.5,0-0.9,0.2-1.2,0.5c-0.3,0.3-0.6,0.7-0.8,1.2c-0.2,0.5-0.4,1-0.4,1.5s-0.1,1.1,0,1.6s0.2,0.9,0.5,1.2
		c0.2,0.3,0.6,0.5,1,0.6c0.5,0,0.9-0.2,1.3-0.5s0.7-0.6,1-1c0.3-0.4,0.5-0.8,0.7-1.3c0.2-0.5,0.3-0.9,0.3-1.3c0-0.7-0.1-1.3-0.5-1.8
		C219,198.1,218.4,197.9,217.7,198z"/>
</g>
</svg>
